<svg
   xmlns="http://www.w3.org/2000/svg"
   xmlns:xlink="http://www.w3.org/1999/xlink"
   version="1.1"
   viewBox="0 0 95 79"
   height="450"
   width="450">
      <path
         d="M 70.194422,69.94249 C 66.413782,69.08031 65.938077,68.718035 61.445955,63.28 L 57.28263,58.24 h 1.531866 1.531866 l 3.622816,4.45608 c 3.0259,3.721872 3.87231,4.563408 5.137078,5.107498 2.28216,0.981756 4.309014,1.343724 6.248112,1.11582 1.159165,-0.136236 2.091386,-0.06211 2.773805,0.220557 l 1.027869,0.425757 -0.938023,0.25631 c -1.875485,0.512477 -6.031062,0.574868 -8.023597,0.120468 z M 47.68,67.96039 c -5.035053,-0.931827 -9.539626,-3.279616 -13.210045,-6.885097 -1.235206,-1.213347 -2.183632,-2.268285 -2.107613,-2.344301 0.07602,-0.07602 1.52384,0.213635 3.217383,0.64367 2.035421,0.516848 3.656221,1.161917 4.781526,1.903018 4.223543,2.781533 10.360071,4.144083 15.397783,3.418912 1.452531,-0.209091 3.010876,-0.463158 3.462985,-0.564598 0.675939,-0.151661 0.981056,0.02406 1.716931,0.988854 0.531533,0.696874 0.777757,1.290445 0.606384,1.461818 -0.575337,0.575337 -5.45248,1.602012 -8.265334,1.739916 -1.84241,0.09032 -3.859949,-0.04016 -5.6,-0.362192 z M 71.03015,67.405683 C 70.232733,67.190566 69.284614,66.804285 68.923219,66.54728 68.262656,66.077523 61.76,58.396618 61.76,58.086118 c 0,-0.09136 0.468,-0.165088 1.04,-0.163824 0.883837,0.0019 1.280253,0.295588 2.64,1.955552 2.332976,2.848068 5.595229,5.772637 7.732346,6.931956 L 75.04,67.822944 73.76,67.809888 c -0.704,-0.0072 -1.932432,-0.189075 -2.72985,-0.404192 z m -2.983251,-6.236729 -0.872838,-0.911047 1.293891,-1.168953 C 69.552883,58.108781 69.99425,57.92 71.200922,57.92 c 0.791494,0 1.43704,0.108 1.434553,0.24 -0.0063,0.331837 -3.193603,3.92 -3.482115,3.92 -0.128493,0 -0.6264,-0.409971 -1.106461,-0.911046 z M 34.633642,57.652285 c -0.223498,-0.141853 -0.367498,-0.598355 -0.32,-1.014445 0.09826,-0.860803 0.41647,-0.758182 -6.409676,-2.067098 -2.82424,-0.541548 -4.44054,-0.717353 -4.804481,-0.522579 -0.933293,0.499485 -3.020047,-0.09492 -4.088006,-1.164457 -0.786442,-0.7876 -0.958912,-1.191719 -0.84368,-1.976842 C 18.282033,50.128534 18.470023,49.92 19.057434,49.92 19.467071,49.92 19.891226,49.776 20,49.6 c 0.108774,-0.176 0.891708,-0.32 1.739854,-0.32 1.211155,0 1.637753,0.144086 1.987888,0.671418 0.367116,0.552905 1.216538,0.801555 4.812363,1.408716 2.401607,0.405514 4.801457,0.83282 5.332996,0.949565 0.964397,0.211818 0.967241,0.208167 1.348301,-1.728717 0.31174,-1.584544 0.49704,-1.940982 1.009052,-1.940982 0.549389,0 0.61369,0.18656 0.518368,1.503936 -0.09903,1.368678 -0.039,1.520566 0.667453,1.688829 0.426951,0.101689 0.842237,0.382774 0.922858,0.624633 0.111424,0.334272 -0.08569,0.39329 -0.821818,0.246064 -0.845638,-0.169126 -0.987609,-0.09318 -1.119942,0.599066 -0.175258,0.916803 -0.144151,0.943683 1.417933,1.225312 1.319008,0.237802 1.335334,0.213933 1.70383,-2.490704 l 0.212934,-1.562867 1.940906,0.202867 C 42.740474,50.78871 43.952758,50.88 44.366941,50.88 c 0.531792,0 0.753059,0.182285 0.753059,0.620394 0,0.493376 0.306218,0.66631 1.49569,0.844684 3.671472,0.55057 31.635513,-0.603721 38.744848,-1.599302 0.961267,-0.134611 1.014156,-0.09642 0.694243,0.501347 -0.190461,0.355882 -0.802704,0.833018 -1.360538,1.060301 -2.255664,0.919046 -22.233235,2.241203 -30.871398,2.04313 -6.09521,-0.139764 -5.563911,-0.302714 -5.899661,1.809446 -0.09059,0.569869 -0.304781,0.628003 -1.95471,0.530528 -1.689744,-0.09983 -1.869335,-0.04692 -2.03866,0.600576 -0.1736,0.66385 -0.310537,0.696998 -2.104688,0.509472 C 40.76967,57.690259 39.622445,57.6 39.275738,57.6 c -0.477908,0 -0.5889,-0.15863 -0.45888,-0.655827 0.158723,-0.606947 0.04822,-0.648685 -1.482679,-0.56 -1.437097,0.08325 -1.6676,0.190313 -1.756435,0.815827 -0.10936,0.770026 -0.29977,0.861242 -0.944102,0.452285 z M 24.32,52.48 c 0,-0.352 0.0076,-0.748 0.0169,-0.88 0.0093,-0.132 -0.206703,-0.28656 -0.48,-0.343462 -0.363858,-0.07576 -0.496902,0.159852 -0.496902,0.88 0,0.660854 0.157455,0.983462 0.48,0.983462 0.266667,0 0.48,-0.284445 0.48,-0.64 z m 26.12761,4.587363 C 49.033914,56.935248 48.912016,56.859645 49.083238,56.221142 49.186653,55.835514 49.273382,55.448 49.275978,55.36 c 0.0026,-0.088 3.640556,-0.172803 8.084368,-0.188454 7.738297,-0.02726 13.934313,-0.347325 22.085027,-1.140874 2.070953,-0.201626 3.833344,-0.298621 3.916419,-0.215546 0.08308,0.08308 -0.403786,0.46288 -1.081914,0.844013 -1.92616,1.08256 -13.211964,2.29144 -22.759878,2.437927 -4.136,0.06346 -8.218576,0.05009 -9.07239,-0.0297 z m 1.339056,-5.856521 c -0.27616,-0.800413 -5.347127,-5.950519 -6.825732,-6.93226 l -1.66486,-1.105404 0.337116,-1.263008 c 0.292282,-1.095031 0.249626,-1.380522 -0.320723,-2.146589 -0.361814,-0.485968 -1.075133,-1.021802 -1.585155,-1.190739 -1.266019,-0.419351 -1.260938,-0.410592 -0.637837,-1.099111 0.897632,-0.991875 0.0273,-1.112579 -1.513107,-0.209846 -1.419402,0.831824 -4.444877,1.161923 -4.836829,0.527728 -0.09803,-0.158611 0.973472,-1.019587 2.381114,-1.913274 C 38.528294,34.98465 39.68,34.125795 39.68,33.96977 c 0,-0.156026 -1.956816,-2.91583 -4.348477,-6.1329 -3.69874,-4.975242 -4.318813,-5.973806 -4.149932,-6.683044 0.386397,-1.622727 0.347125,-1.735514 -0.701591,-2.014981 -1.164752,-0.310388 -1.182203,-0.370702 -0.682011,-2.357143 0.391121,-1.553282 0.601221,-1.639378 2.564885,-1.05105 1.157164,0.346695 1.237126,0.450111 1.237126,1.6 0,1.153735 0.05929,1.229348 0.963974,1.229348 0.824666,0 1.132909,0.265906 2.13296,1.84 1.506679,2.371535 7.184464,11.085017 7.319796,11.233412 0.05688,0.06238 1.22526,-0.513624 2.596393,-1.28 C 49.780947,28.582795 49.6,28.643565 49.6,29.350292 c 0,0.857649 -1.818634,3.220854 -2.914918,3.787766 -0.939175,0.485664 -1.325204,1.332329 -0.445082,0.976179 0.264,-0.106832 0.676003,-0.273968 0.915562,-0.371421 0.310505,-0.12631 0.48488,0.190522 0.60734,1.103526 0.264196,1.969725 1.70168,4.49456 5.086653,8.93432 1.702211,2.232637 3.688384,4.887338 4.413715,5.899338 l 1.318781,1.84 h -1.236457 c -1.187869,0 -1.362986,-0.150995 -4.455818,-3.842042 -1.770646,-2.113123 -3.913299,-4.398803 -4.761453,-5.079289 -1.481373,-1.188528 -1.538534,-1.2952 -1.4516,-2.708893 0.07451,-1.211555 -0.05019,-1.612333 -0.705552,-2.267696 -0.84464,-0.84464 -2.330464,-1.380918 -2.706073,-0.976701 -0.123805,0.133232 -0.03978,0.308298 0.186726,0.389037 0.226502,0.08074 0.855174,0.519856 1.39705,0.975814 0.926812,0.77986 0.97384,0.925914 0.793145,2.463332 -0.184451,1.569382 -0.152985,1.657414 0.791891,2.215568 1.57801,0.93215 3.106768,2.395699 5.371888,5.142742 C 55.18688,51.932307 55.01471,51.52 53.34585,51.52 c -0.798884,0 -1.500516,-0.13912 -1.559184,-0.309158 z m -9.60801,-19.743357 c 0.102432,-0.71905 -0.891456,-1.307476 -1.535792,-0.909255 -0.370912,0.229237 -0.432182,1.225783 -0.09603,1.561936 0.461546,0.461546 1.534211,0.03251 1.631824,-0.652681 z M 39.84,28.475618 C 39.84,27.841461 39.678538,27.68 39.044384,27.68 c -0.898992,0 -1.30985,1.021341 -0.595869,1.481254 0.739027,0.47605 1.391485,0.15456 1.391485,-0.685636 z M 37.701254,25.362736 C 37.522618,23.815042 35.85873,24.099412 35.844899,25.68 c -0.0036,0.41265 0.253293,0.56 0.976355,0.56 0.881008,0 0.970912,-0.08962 0.88,-0.877264 z M 35.660883,22.52224 c 0.240541,-0.958393 0.257079,-0.929581 -0.702973,-1.224714 -0.961219,-0.295493 -1.591043,1.034334 -0.787369,1.662474 0.789801,0.617295 1.260221,0.479118 1.490342,-0.43776 z m 39.539373,26.757107 c 1.000957,-2.539443 1.694832,-7.159331 1.440618,-9.591747 -0.297159,-2.843322 -1.325415,-6.504003 -2.460608,-8.759981 -1.200112,-2.384988 -0.941284,-2.734825 0.353241,-0.477445 1.202048,2.096127 2.435754,5.763816 2.938675,8.736405 0.436103,2.577655 0.20736,7.930496 -0.431318,10.093421 -0.378451,1.281642 -0.538621,1.451056 -1.456461,1.540531 l -1.031248,0.100528 z M 28.81185,49.821939 C 27.386891,49.330806 27.165225,48.467091 27.11238,43.2 c -0.04759,-4.743626 0.616284,-7.578112 2.723576,-11.628593 1.721606,-3.309145 2.720556,-4.519061 3.320207,-4.021395 0.584992,0.485502 0.560163,0.820862 -0.136269,1.84059 -0.918089,1.344281 -2.33587,4.768643 -2.855892,6.897827 -0.877726,3.593766 -0.510349,10.160371 0.752559,13.451456 0.232616,0.606189 -0.501015,0.634787 -2.104711,0.08205 z M 59.52,29.578436 c 0,-0.353108 -0.186275,-0.442442 -0.629341,-0.301819 -0.882633,0.280137 -1.182621,-1.058509 -0.523043,-2.333995 0.59905,-1.158431 2.479386,-2.703622 2.84505,-2.337956 0.14312,0.143118 0.288816,1.061537 0.323776,2.040931 0.05335,1.494833 -0.06099,1.913462 -0.712221,2.60756 C 59.938122,30.197577 59.52,30.301859 59.52,29.578436 Z m 4.537866,-2.565923 C 63.448704,26.585841 61.76,24.289993 61.76,23.888493 c 0,-0.387094 2.821638,-0.427763 3.71719,-0.05358 1.29754,0.542147 2.011997,1.715442 1.351677,2.219751 C 66.580179,26.2446 66.428506,26.652 66.491818,26.96 c 0.151193,0.735548 -1.410676,0.769245 -2.433952,0.05251 z m -8.79561,-2.088075 C 54.791133,24.650364 54.757808,24.500021 55.08168,24.10978 55.401085,23.724921 55.388893,23.57207 55.019424,23.32911 54.639325,23.079161 54.690435,22.917619 55.31545,22.393499 55.73095,22.045075 56.411098,21.76 56.82689,21.76 c 0.770448,0 3.65311,1.256453 3.65311,1.592264 0,0.101604 -0.604826,0.57691 -1.344054,1.056235 -1.390743,0.901776 -2.871447,1.098991 -3.87369,0.515939 z m 4.35449,-3.432032 c -1.881108,-1.719503 -2.371376,-4.145238 -0.803629,-3.976179 0.446665,0.04817 0.706883,-0.09908 0.706883,-0.4 0,-0.723047 0.51847,-0.571675 1.256774,0.366928 0.484554,0.616008 0.657168,1.284122 0.640733,2.48 -0.03799,2.765139 -0.250909,2.945953 -1.800761,1.529251 z M 62.08,22.433935 c 0,-0.756283 1.618262,-3.54119 2.256077,-3.882538 0.954377,-0.510769 2.084889,-0.276274 1.969894,0.408603 -0.05576,0.332115 0.107011,0.56 0.4,0.56 0.758234,0 0.588832,0.844856 -0.385971,1.924974 -0.696022,0.771217 -1.231229,1.015745 -2.56,1.169622 -1.182086,0.13689 -1.68,0.08335 -1.68,-0.180661 z M 38.895658,22.105332 c -0.406532,-0.657779 6.808476,-3.83062 7.890569,-3.469922 0.211475,0.07049 -0.34663,0.367305 -1.24023,0.659587 -0.8936,0.292282 -2.646599,1.110478 -3.895549,1.818212 -2.496883,1.414894 -2.494122,1.413899 -2.75479,0.992123 z"
         style="fill:#fff;" />
</svg>
