<svg
   xmlns="http://www.w3.org/2000/svg"
   xmlns:xlink="http://www.w3.org/1999/xlink"
   version="1.1"
   width="1587"
   height="1122"
   viewBox="0 0 1587 1122">
 <defs>
	<filter id="sofGlow" height="600%" width="600%" x="-75%" y="-75%">
		<!-- Thicken out the original shape -->
		<feMorphology operator="dilate" radius="5" in="SourceAlpha" result="thicken" />

		<!-- Use a gaussian blur to create the soft blurriness of the glow -->
		<feGaussianBlur in="thicken" stdDeviation="10" result="blurred" />

		<!-- Change the colour -->
		<feFlood flood-color="rgb(195,234,249)" result="glowColor" />

		<!-- Color in the glows -->
		<feComposite in="glowColor" in2="blurred" operator="in" result="softGlow_colored" />

		<!--	Layer the effects together -->
		<feMerge>
			<feMergeNode in="softGlow_colored"/>
			<feMergeNode in="SourceGraphic"/>
		</feMerge>
	</filter>
</defs>
    <path
       d="m 817.01918,895.32155 c -1.7698,-3.2787 -2.47361,-7.93411 -2.62125,-17.33858 -0.11107,-7.07105 -0.89912,-19.85982 -1.7513,-28.41949 -0.85218,-8.55968 -1.55236,-20.73947 -1.55592,-27.06617 -0.005,-10.87246 2.90951,-33.56023 4.67638,-36.3888 1.98262,-3.17396 6.06682,-22.51546 4.84222,-22.93124 -1.90739,-0.6476 -1.63665,-4.59389 0.52865,-7.70597 2.79068,-4.01088 3.55282,-14.80264 1.45591,-20.61557 -1.00396,-2.78306 -1.85237,-7.51277 -1.88539,-10.51053 -0.0697,-6.32928 -2.72057,-10.65818 -8.26326,-13.49401 -4.81874,-2.46549 -8.45746,-1.32155 -8.07843,2.53966 0.15503,1.57945 -0.37916,4.46222 -1.18711,6.40618 -2.2137,5.32629 -3.78648,41.32073 -1.90358,43.5654 1.79266,2.13713 0.0362,15.22524 -2.70605,20.16459 -1.93454,3.48445 -2.23334,31.21403 -0.707,65.61474 0.58933,13.28269 0.42603,20.85172 -0.46158,21.3945 -2.02878,1.24056 -1.66839,4.74009 0.48814,4.74009 2.33617,0 0.52269,8.62254 -3.62895,17.25469 -2.57732,5.3588 -5.07175,7.52197 -5.07175,4.39824 0,-0.74432 -0.93852,-1.3533 -2.08556,-1.3533 -2.69255,0 -4.74352,-5.40983 -4.49142,-11.84691 0.18565,-4.74034 -0.43289,-19.77025 -2.35287,-57.17184 -0.80315,-15.64573 -2.58121,-25.71287 -4.54139,-25.71287 -1.65123,0 -1.90737,-21.28973 -0.26823,-22.29204 2.56043,-1.56567 1.49191,-13.24007 -2.72844,-29.81035 -2.27489,-8.93183 -4.67268,-22.3296 -5.32842,-29.77279 -1.80078,-20.44008 -6.36676,-40.24161 -11.69146,-50.70299 -10.30247,-20.24114 -12.63452,-36.17984 -8.72263,-59.61612 1.424,-8.53125 1.30554,-9.92608 -1.36431,-16.06656 -1.76886,-4.06824 -3.20404,-10.90472 -3.63347,-17.30791 -0.39036,-5.821 -1.4366,-14.43189 -2.32492,-19.13534 -1.26879,-6.71783 -1.25407,-8.77252 0.0687,-9.58136 0.92613,-0.56632 1.35225,-1.89445 0.94693,-2.95141 -0.40531,-1.05697 -1.24686,-9.45313 -1.87015,-18.65815 -0.90675,-13.39187 -1.58631,-16.98727 -3.40063,-17.99185 -4.3582,-2.41311 -10.74516,-9.97883 -13.36042,-15.82619 -2.93748,-6.56776 -2.18639,-12.0906 2.7174,-19.98101 3.54645,-5.7064 1.45865,-9.79242 -6.30837,-12.34605 -5.44059,-1.78871 -11.10472,-7.24684 -18.61722,-17.94002 -1.3073,-1.86081 -3.89526,-5.45256 -5.75102,-7.98166 -4.16057,-5.6702 -4.4317,-12.62491 -0.63851,-16.37789 1.50461,-1.48866 3.35114,-2.70662 4.10344,-2.70662 0.75227,0 1.36779,-0.9135 1.36779,-2.02998 0,-2.05505 -5.34536,-2.90702 -14.36196,-2.2891 -8.46393,0.58005 -30.51159,-2.83106 -42.16844,-6.52407 -17.06012,-5.40484 -40.38119,-18.91956 -49.54296,-28.71049 -13.0774,-13.97542 -21.17704,-34.96571 -23.15065,-59.99496 -0.79124,-10.03453 -0.41513,-14.94797 2.07183,-27.06618 2.92261,-14.24103 6.48226,-23.77444 9.58567,-25.67212 0.80944,-0.49495 2.06648,-2.4477 2.79342,-4.33944 0.72695,-1.89171 1.72046,-3.04496 2.20783,-2.56278 0.48735,0.48221 2.28536,-0.42386 3.99555,-2.01348 3.46237,-3.21826 7.35244,-2.61958 7.35135,1.13134 -3.8e-4,1.32592 -1.31066,5.76021 -2.91172,9.85396 -7.04731,18.01911 -9.92329,36.98202 -6.81485,44.93385 0.66837,1.70974 1.88839,7.37155 2.71117,12.58178 2.54535,16.11823 3.93207,19.62299 7.76431,19.62299 3.93084,0 3.93642,-0.038 1.28359,-8.69008 -1.12312,-3.66304 -2.39492,-12.21572 -2.82622,-19.00591 -0.70954,-11.17032 -0.51379,-12.6623 2.0559,-15.6695 2.66281,-3.11617 2.95639,-3.17575 4.70235,-0.95435 1.02422,1.30312 2.23928,5.51941 2.70017,9.36953 0.46086,3.85012 1.43574,7.59167 2.16639,8.31456 1.41843,1.4034 2.0498,-0.61957 3.51321,-11.25691 0.4608,-3.34944 2.10557,-10.22427 3.65505,-15.2774 3.39232,-11.06299 12.28949,-21.52856 23.73571,-27.91996 15.35433,-8.57359 19.09282,-3.47173 7.40093,10.09987 -3.81962,4.4337 -8.05018,10.19275 -9.40121,12.79785 -3.83255,7.38998 -7.18999,20.3521 -6.24078,24.09392 0.54128,2.1338 0.19681,3.80864 -0.92859,4.51481 -1.40272,0.88019 -1.34599,1.10883 0.26265,1.05874 1.12844,-0.0351 4.51376,-3.83201 7.52292,-8.43745 4.16561,-6.37535 6.28724,-8.41613 8.89075,-8.55189 5.01288,-0.2614 5.56914,1.86492 2.49804,9.54897 -5.67256,14.19312 -4.51705,43.16195 2.19569,55.04503 1.92876,3.41436 4.65035,7.23183 6.04799,8.48327 2.44996,2.19368 2.51771,2.034 1.88793,-4.45065 -0.79481,-8.18418 0.30421,-13.06716 3.18741,-14.16183 4.00988,-1.52242 7.01008,1.64636 9.34113,9.86609 2.63972,9.30823 9.63378,17.37779 21.65723,24.98757 4.03232,2.55211 8.22809,5.71198 9.32393,7.02195 1.09583,1.30996 4.1467,3.36146 6.77973,4.5589 2.63303,1.19741 7.55713,3.77376 10.94246,5.72523 3.38532,1.95147 8.46137,4.27127 11.28016,5.15515 2.81875,0.88388 6.06756,2.93068 7.21953,4.54843 1.71509,2.40856 2.31442,2.59263 3.3084,1.01623 0.94997,-1.50662 2.91041,-0.23315 9.01714,5.8573 6.37479,6.35782 8.39902,7.63453 11.05782,6.97429 1.83278,-0.45514 3.25455,-0.20572 3.25455,0.57089 0,0.76625 3.19118,1.36241 7.18099,1.34151 6.11599,-0.032 7.76713,-0.62869 11.13322,-4.02314 2.17374,-2.19204 4.46908,-3.6695 5.10076,-3.28324 0.63167,0.38625 5.8207,-4.01129 11.53117,-9.77231 l 10.38268,-10.47461 -1.32801,-5.4892 c -2.50479,-10.35334 1.59192,-25.09354 11.86897,-42.70519 4.47965,-7.67673 5.64444,-8.79652 9.15003,-8.79652 5.63655,0 5.78199,2.95174 0.79044,16.04247 -5.36285,14.06454 -9.35686,34.78836 -6.07973,31.54592 0.50318,-0.49781 1.97608,0.0452 3.27313,1.20644 2.10113,1.88136 2.88434,1.89414 7.1826,0.11722 8.49422,-3.51152 24.90236,-15.31025 31.6385,-22.75059 6.64298,-7.33742 11.51463,-10.87347 13.39576,-9.72319 0.57365,0.35079 1.04303,2.40725 1.04303,4.56991 0,3.15862 -2.6662,6.61471 -13.55327,17.56866 -7.45427,7.50009 -13.87683,14.47087 -14.27234,15.49058 -0.3955,1.01975 -5.08527,4.12413 -10.42171,6.89863 -5.33647,2.77452 -9.41479,5.32938 -9.06295,5.6775 1.10141,1.08972 20.54601,-8.26419 22.42535,-10.78782 0.98303,-1.32005 2.53959,-2.40006 3.45903,-2.40006 3.80862,0 27.34334,-26.88664 32.91139,-37.59879 1.27011,-2.44348 2.78747,-8.37275 3.37194,-13.17614 0.58446,-4.8034 1.45494,-9.12156 1.93437,-9.5959 1.72069,-1.70247 4.70512,0.66623 7.08108,5.6201 4.10622,8.56153 0.83779,21.96025 -8.29937,34.02248 -1.7948,2.36937 -3.26328,4.7844 -3.26328,5.36674 0,0.58232 -2.90351,3.97537 -6.45222,7.54009 l -6.45225,6.48131 5.7033,-2.21658 c 3.77851,-1.4685 9.30275,-5.99769 16.36882,-13.42042 14.59475,-15.33135 17.49444,-19.16163 22.6332,-29.89699 4.17776,-8.72775 4.44602,-10.18639 4.44602,-24.17458 0,-8.18753 -0.51967,-16.30822 -1.15481,-18.04604 -1.07198,-2.93297 -0.82671,-3.14154 3.41951,-2.90783 2.51587,0.1385 5.31584,0.19012 6.22212,0.11469 4.26426,-0.35483 3.19353,-17.23 -2.11249,-33.29317 -9.38057,-28.39828 -10.76566,-38.56931 -5.25237,-38.56931 7.24639,0 19.30111,33.05527 21.46853,58.86894 0.62495,7.44319 1.37086,14.58119 1.65755,15.8622 0.79848,3.56778 2.09476,4.23567 2.90059,1.49447 1.39754,-4.75407 7.68999,-40.4343 8.48441,-48.10936 0.97261,-9.39649 4.56864,-14.80643 7.97998,-12.00528 1.57131,1.29024 2.2085,4.09305 2.2085,9.71453 0,18.74167 -4.83668,50.37807 -9.29321,60.78625 -1.11545,2.60514 -3.66641,9.33376 -5.66883,14.95254 -5.25954,14.75829 -24.47129,42.9695 -37.24055,54.68538 -18.03212,16.54458 -36.11903,27.16382 -61.30722,35.9949 -13.4211,4.70549 -14.39942,5.29796 -15.20804,9.20979 -2.18084,10.5501 -16.56228,24.58355 -31.31702,30.55927 -14.5676,5.8999 -18.49439,10.52633 -19.59407,23.08508 -1.10541,12.62431 0.59351,26.72847 3.57487,29.67826 1.28847,1.27482 2.34267,3.75261 2.34267,5.50622 0,3.88656 4.78637,7.81516 13.4151,11.01096 9.64728,3.57302 16.17316,8.2736 21.31244,15.35128 4.22793,5.82258 5.3191,6.50009 12.64787,7.85296 4.4114,0.81433 10.55136,2.03028 13.64432,2.70211 6.35607,1.38062 30.55004,-1.17814 42.93355,-4.54065 17.77035,-4.82522 18.49179,-4.8886 31.11461,-2.73333 29.90384,5.10586 48.55292,18.87568 60.31016,44.53091 7.36534,16.07152 8.77874,23.73384 9.25654,50.17547 0.3826,21.18068 0.123,24.89886 -2.0795,29.77279 -4.5345,10.03559 -9.82467,28.06767 -8.99407,30.65699 0.81693,2.54662 -1.63804,13.13711 -3.55434,15.33311 -0.56377,0.64605 -0.72571,3.08201 -0.35986,5.41324 0.36584,2.33122 0.10048,8.806 -0.58973,14.3884 -0.95448,7.71977 -0.84619,10.47384 0.45231,11.50312 0.93898,0.74432 2.16594,2.87101 2.72656,4.72597 0.95077,3.14584 0.84865,3.23686 -1.51819,1.3533 -2.75277,-2.19063 0.5473,3.01995 7.76892,12.26653 2.0674,2.64698 4.8353,7.51888 6.151,10.82646 1.3158,3.30757 4.7578,8.70347 7.6491,11.9909 5.6857,6.4649 7.024,9.81734 6.3271,15.85061 -0.3268,2.82897 -1.2854,4.0027 -3.5264,4.31759 -2.0415,0.28687 -3.0776,1.36067 -3.0776,3.18972 0,1.79336 -0.6622,2.50582 -1.8947,2.03795 -1.042,-0.39566 -3.2174,0.1975 -4.8347,1.31815 -2.6358,1.82669 -2.8729,2.96705 -2.2901,11.02091 0.4152,5.73633 0.078,9.66746 -0.9373,10.87592 -0.9931,1.18395 -1.5926,7.53312 -1.6009,16.95815 -0.01,8.2861 -0.4149,13.23867 -0.9051,11.00571 -0.7546,-3.43659 -0.9163,-3.07299 -1.0533,2.36829 -0.1646,6.53699 -1.45406,7.71781 -5.59702,5.12562 -1.29725,-0.81167 -2.34043,-0.74111 -2.92706,0.19798 -1.26242,2.021 -2.67131,-7.14923 -4.0692,-26.48563 -1.54862,-21.42168 -2.62769,-29.58301 -4.15846,-31.45241 -0.76118,-0.92955 -0.70373,-2.94964 0.14676,-5.163 0.76849,-1.99979 1.39723,-6.56299 1.39723,-10.14041 0,-10.16174 -15.62399,-34.56272 -35.76717,-55.85996 -2.95823,-3.12771 -5.37566,-7.30351 -5.93458,-10.25117 -0.91394,-4.82011 -13.44963,-21.93986 -16.06515,-21.93986 -0.66505,0 -3.48127,1.77369 -6.25826,3.94154 -2.77698,2.16786 -6.22908,4.14707 -7.67133,4.39826 -3.22746,0.56213 -4.5891,3.83997 -1.59513,3.83997 1.19113,0 2.14612,0.45676 2.1222,1.01498 -0.0776,1.80882 -3.62257,5.73319 -4.44444,4.92001 -0.43888,-0.43421 -0.46537,0.46878 -0.0589,2.00669 0.40648,1.53786 1.5958,3.49963 2.64293,4.3595 1.04716,0.85983 1.9039,2.87573 1.9039,4.47978 0,1.60406 0.85618,4.12585 1.90264,5.60404 1.04643,1.47816 2.81715,5.72434 3.93489,9.43593 3.32035,11.02561 6.2077,16.8982 8.30829,16.8982 2.46409,0 4.09249,3.88386 2.48342,5.92309 -0.65972,0.83607 -1.31836,5.33306 -1.46365,9.99334 -0.20515,6.5795 0.2105,8.65345 1.85973,9.27959 2.73981,1.04023 2.83184,7.2834 0.10738,7.2834 -1.10911,0 -2.99175,-1.86582 -4.18365,-4.14626 -1.19189,-2.28043 -2.90036,-3.90819 -3.7966,-3.61726 -2.72652,0.88506 -7.89197,9.45909 -7.484,12.42255 0.22511,1.6353 -0.31411,2.64723 -1.30679,2.45232 -1.86238,-0.36567 -8.85269,12.27235 -9.16597,16.57154 -0.10846,1.48864 -0.87611,2.57601 -1.70578,2.41638 -0.8297,-0.15962 -2.27451,1.53934 -3.21068,3.77549 -1.74139,4.15959 -6.10128,8.01788 -9.06021,8.01788 -3.01672,0 -3.14032,-4.62289 -0.37989,-14.20975 10.82261,-37.58653 11.73811,-46.14926 6.0633,-56.70901 -1.88074,-3.49969 -3.41953,-7.57496 -3.41953,-9.05614 0,-1.4812 -2.61593,-6.10399 -5.81316,-10.27287 -3.19726,-4.16891 -7.96748,-11.49305 -10.60051,-16.27589 -2.79688,-5.08047 -6.58343,-9.8048 -9.10727,-11.36279 l -4.31996,-2.66671 -3.36033,7.26212 c -1.84818,3.99417 -4.09039,9.45081 -4.9827,12.12588 -0.8923,2.67504 -2.51417,5.59599 -3.60412,6.49098 -1.08996,0.895 -1.98175,2.80094 -1.98175,4.23539 0,1.43447 -1.04305,4.55709 -2.31792,6.93917 -1.27484,2.38209 -2.51498,5.48083 -2.75584,6.88613 -0.24085,1.4053 -2.20365,6.2772 -4.36178,10.82647 -5.38829,11.35838 -6.45446,15.19576 -9.66475,34.7859 -2.19865,13.41674 -2.47112,17.95386 -1.28103,21.33157 0.83138,2.3596 1.05123,5.34829 0.48857,6.64152 -0.96559,2.2194 -1.16087,5.23096 -1.95128,30.09422 -0.17748,5.58238 -0.82449,10.76124 -1.43782,11.50853 -0.61333,0.74731 -1.31931,3.48776 -1.56885,6.08989 -0.6466,6.74265 -5.4981,7.34071 -8.87029,1.09346 z M 997.84825,627.62083 c -0.46711,-4.09375 -2.12485,-10.18365 -3.68386,-13.53309 -7.67669,-16.49293 -13.35643,-26.51813 -15.71758,-27.74282 -1.43501,-0.74434 -4.59674,-2.76502 -7.02609,-4.4904 -5.22414,-3.71038 -5.62673,-2.09809 -1.21252,4.85562 1.7625,2.77639 2.96136,5.75242 2.66419,6.61341 -0.29719,0.86094 0.63115,2.38342 2.06302,3.38325 3.8359,2.67854 7.53297,10.23748 5.3841,11.00816 -1.33736,0.47966 -1.33314,1.20302 0.0203,3.471 0.94038,1.57578 1.70975,3.82276 1.70975,4.99325 0,1.17051 0.6567,1.72665 1.45929,1.23585 0.80262,-0.49076 1.30719,-0.07 1.1213,0.93514 -0.55888,3.02147 3.27717,13.56225 5.20151,14.29287 0.98589,0.37432 1.79255,1.89855 1.79255,3.3872 0,1.84986 0.64944,2.46003 2.05171,1.92764 1.31969,-0.50105 2.08264,0.0509 2.13842,1.54683 0.0592,1.58969 0.52928,1.25496 1.48496,-1.05745 0.77281,-1.86992 1.01835,-6.7126 0.54894,-10.82646 z m -26.74111,-33.15606 c 0,-1.11648 -0.94755,-2.02997 -2.10564,-2.02997 -1.73972,0 -1.79913,0.34383 -0.34195,1.97847 2.24207,2.51515 2.44759,2.51949 2.44759,0.0514 z m -5.47123,-6.08989 c 0,-0.74432 -0.65185,-1.35331 -1.44854,-1.35331 -0.79669,0 -1.06812,0.60899 -0.60318,1.35331 0.46495,0.74431 1.11681,1.3533 1.44854,1.3533 0.33174,0 0.60318,-0.60899 0.60318,-1.3533 z M 731.74105,428.68444 c 0,-0.74433 -0.46165,-1.36163 -1.02587,-1.3718 -0.56421,-0.0108 -2.41075,-0.38569 -4.10341,-0.8345 -1.7572,-0.46592 -3.07758,-0.20806 -3.07758,0.60103 0,1.21973 1.27963,1.71408 7.18099,2.77429 0.56422,0.1013 1.02587,-0.42471 1.02587,-1.16902 z m -14.80033,-7.91804 c -3.97551,-4.13955 -12.62105,-9.67497 -15.1109,-9.67497 -2.73366,0 -1.65209,2.73457 1.55935,3.94261 1.70922,0.64295 5.76852,3.36852 9.02067,6.05683 6.78268,5.60669 10.00537,5.37594 4.53088,-0.32447 z m 217.07046,-51.08643 c 6.69715,-7.52773 11.7269,-16.12269 12.93639,-22.10614 0.73306,-3.62636 -0.60466,-2.3318 -7.74235,7.49258 -9.7474,13.41637 -13.08853,15.96407 -8.32699,6.34955 3.76678,-7.60587 4.23752,-11.49515 1.25428,-10.36251 -1.12412,0.42681 -1.70331,1.32116 -1.28708,1.9875 0.41622,0.66632 0.10493,1.21151 -0.69174,1.21151 -0.79671,0 -1.44855,0.83677 -1.44855,1.85949 0,1.02273 -1.5628,4.62605 -3.4729,8.00735 -2.20244,3.89882 -2.95115,6.46687 -2.04668,7.01993 0.78728,0.48142 1.03459,2.41588 0.55203,4.31815 -0.79466,3.13268 -0.62126,3.31212 1.90701,1.97337 1.52964,-0.80998 5.2946,-4.29782 8.36658,-7.75078 z m 2.19117,-30.03323 c 0.86414,-9.4318 -1.2091,-11.61321 -2.45941,-2.5878 -0.44288,3.19702 -1.20014,7.0032 -1.68275,8.45818 -0.71489,2.15524 -0.60402,2.26928 0.59839,0.61549 1.25689,-1.72874 1.47901,-1.64506 1.49684,0.56386 0.0435,5.37869 1.30695,1.02704 2.04693,-7.04973 z m -326.68884,-2.64897 c -0.26159,-1.30257 -1.43235,-4.49976 -2.60166,-7.1049 -1.16931,-2.60509 -2.55872,-7.02027 -3.08753,-9.81148 -0.52884,-2.79118 -1.49314,-5.07491 -2.14289,-5.07491 -1.80267,0 0.0513,7.90467 3.88823,16.57806 3.49463,7.89954 4.80413,9.69695 3.94385,5.41323 z M 621.404,311.26032 c -0.63467,-10.25028 -0.26232,-13.25217 2.80858,-22.64335 3.96392,-12.12206 4.09576,-12.85643 2.30799,-12.85643 -0.69697,0 -2.94726,3.39751 -5.00066,7.55 -3.06217,6.19252 -3.84208,9.90322 -4.33763,20.63796 -0.35869,7.76986 0.005,14.63325 0.89468,16.89099 2.66092,6.75155 4.08443,2.653 3.32704,-9.57917 z m 328.62092,-0.31377 c 0.61489,-4.09375 1.02198,-8.66115 0.90463,-10.1498 -0.11735,-1.48864 -0.34164,-4.96517 -0.49844,-7.72564 -0.47219,-8.31263 -2.29035,-4.45546 -3.16747,6.7197 -0.45237,5.76351 -1.10824,13.82854 -1.4575,17.92229 -0.58661,6.87573 -0.49262,7.18527 1.23286,4.05992 1.02737,-1.86078 2.37103,-6.73269 2.98592,-10.82647 z M 582.85573,277.31939 c 1.01538,-3.23637 2.46165,-5.85482 3.21395,-5.81877 1.27303,0.061 5.96959,-7.34179 6.0978,-9.61149 0.0316,-0.55824 -1.4732,-1.015 -3.34384,-1.015 -3.60024,0 -5.5859,3.26806 -9.86719,16.23971 -2.51171,7.61012 -4.38876,21.65294 -2.89428,21.65294 0.61423,0 1.12518,2.28373 1.13545,5.07491 0.0103,2.79121 0.4719,6.59739 1.02584,8.45817 0.64419,2.16395 1.32774,-2.46951 1.89665,-12.85642 0.48923,-8.93183 1.72024,-18.88766 2.73562,-22.12405 z"
       style="stroke-width:1;fill:#e9fbfd;" filter="url(#sofGlow)" />
</svg>