<svg
   xmlns="http://www.w3.org/2000/svg"
   xmlns:xlink="http://www.w3.org/1999/xlink"
   version="1.1"
   width="1587"
   height="1122"
   viewBox="0 0 1587 1122">
 <defs>
	<filter id="sofGlow" height="600%" width="600%" x="-75%" y="-75%">
		<!-- Thicken out the original shape -->
		<feMorphology operator="dilate" radius="5" in="SourceAlpha" result="thicken" />

		<!-- Use a gaussian blur to create the soft blurriness of the glow -->
		<feGaussianBlur in="thicken" stdDeviation="10" result="blurred" />

		<!-- Change the colour -->
		<feFlood flood-color="rgb(195,249,237)" result="glowColor" />

		<!-- Color in the glows -->
		<feComposite in="glowColor" in2="blurred" operator="in" result="softGlow_colored" />

		<!--	Layer the effects together -->
		<feMerge>
			<feMergeNode in="softGlow_colored"/>
			<feMergeNode in="SourceGraphic"/>
		</feMerge>
	</filter>
</defs>
    <path
       d="m 815.66403,886.14996 c -1.71282,-3.20714 -2.39397,-7.76096 -2.53687,-16.96018 -0.10749,-6.91672 -0.87017,-19.42638 -1.69492,-27.79925 -0.82475,-8.37286 -1.50237,-20.28683 -1.50583,-26.47547 -0.005,-10.63516 2.81584,-32.8278 4.52584,-35.59462 1.91879,-3.1047 5.87152,-22.02408 4.68633,-22.43079 -1.84599,-0.63346 -1.58396,-4.49363 0.51164,-7.53778 2.70085,-3.92336 3.43845,-14.47958 1.40903,-20.16565 -0.97162,-2.72231 -1.79273,-7.34882 -1.82469,-10.28114 -0.0675,-6.19116 -2.63299,-10.42558 -7.99724,-13.19953 -4.66363,-2.41167 -8.1852,-1.29269 -7.81838,2.48425 0.15005,1.54497 -0.36695,4.36483 -1.14889,6.26637 -2.14244,5.21004 -3.66457,40.41891 -1.8423,42.61462 1.73495,2.09049 0.0351,14.89294 -2.61893,19.72449 -1.87226,3.4084 -2.16144,30.53281 -0.68425,64.18275 0.57036,12.99279 0.41232,20.39665 -0.44671,20.92757 -1.96346,1.21349 -1.61469,4.63663 0.47243,4.63663 2.26095,0 0.50586,8.43437 -3.51213,16.87812 -2.49436,5.24185 -4.90849,7.35782 -4.90849,4.30226 0,-0.72807 -0.90829,-1.32377 -2.01842,-1.32377 -2.60587,0 -4.59081,-5.29176 -4.34683,-11.58836 0.17967,-4.63688 -0.41896,-19.33877 -2.27713,-55.9241 -0.77729,-15.30426 -2.4981,-25.1517 -4.39519,-25.1517 -1.59806,0 -1.84597,-20.8251 -0.25959,-21.80553 2.478,-1.5315 1.44388,-12.9511 -2.64061,-29.15975 -2.20165,-8.73691 -4.52225,-21.84227 -5.15689,-29.12302 -1.74281,-19.99398 -6.1618,-39.36337 -11.31509,-49.59643 -9.97081,-19.79939 -12.22778,-35.39023 -8.44183,-58.31502 1.37816,-8.34506 1.26352,-9.70947 -1.32039,-15.71593 -1.71191,-3.97945 -3.10089,-10.66673 -3.51649,-16.93017 -0.3778,-5.69396 -1.39035,-14.11693 -2.25008,-18.71772 -1.22795,-6.57121 -1.21369,-8.58106 0.0665,-9.37225 0.89631,-0.55395 1.30872,-1.8531 0.91645,-2.88701 -0.39226,-1.0339 -1.20673,-9.24682 -1.80994,-18.25094 -0.87757,-13.0996 -1.53526,-16.61654 -3.29117,-17.59919 -4.2179,-2.36045 -10.39925,-9.76104 -12.93032,-15.48078 -2.84292,-6.42444 -2.116,-11.82673 2.62993,-19.54493 3.43228,-5.58187 1.41169,-9.57872 -6.1053,-12.07661 -5.26544,-1.74969 -10.74722,-7.08869 -18.01789,-17.54851 -1.26522,-1.82019 -3.76986,-5.33355 -5.56588,-7.80746 -4.02664,-5.54646 -4.28904,-12.34938 -0.61795,-16.02046 1.45616,-1.45616 3.24325,-2.64755 3.97133,-2.64755 0.72807,0 1.32377,-0.89355 1.32377,-1.98566 0,-2.01021 -5.17329,-2.84359 -13.89962,-2.23915 -8.19145,0.56739 -29.52936,-2.76926 -40.81096,-6.38169 -16.5109,-5.28687 -39.08122,-18.50665 -47.94807,-28.0839 -12.65639,-13.67041 -20.4953,-34.2026 -22.40536,-58.6856 -0.76577,-9.81553 -0.40177,-14.62175 2.00512,-26.47548 2.82853,-13.93023 6.2736,-23.25557 9.27709,-25.11183 0.78339,-0.48416 1.99997,-2.39429 2.7035,-4.24473 0.70354,-1.85044 1.66507,-2.97852 2.13675,-2.50685 0.47167,0.47167 2.21179,-0.41462 3.86692,-1.96954 3.35091,-3.14802 7.11575,-2.56242 7.11471,1.10665 -3.7e-4,1.29698 -1.26847,5.63449 -2.818,9.6389 -6.82043,17.62586 -9.60383,36.1749 -6.59545,43.95319 0.64684,1.67243 1.82759,7.21066 2.62388,12.30719 2.4634,15.76646 3.80549,19.19472 7.51435,19.19472 3.8043,0 3.8097,-0.037 1.24227,-8.50041 -1.08695,-3.58311 -2.31781,-11.94912 -2.73523,-18.59113 -0.6867,-10.92653 -0.49725,-12.38595 1.98972,-15.32752 2.57708,-3.04815 2.86121,-3.10644 4.55096,-0.93352 0.99125,1.27469 2.16721,5.39896 2.61325,9.16505 0.44603,3.76609 1.38953,7.42599 2.09665,8.13311 1.37278,1.37277 1.98381,-0.60605 3.40012,-11.01124 0.44596,-3.27634 2.03778,-10.00113 3.53738,-14.94398 3.28313,-10.82155 11.89386,-21.05872 22.97162,-27.31062 14.86002,-8.38648 18.47817,-3.39597 7.16267,9.87944 -3.69666,4.33694 -7.79102,9.97029 -9.09857,12.51855 -3.70916,7.22869 -6.95852,19.90793 -6.03988,23.56808 0.52386,2.08722 0.19048,3.72552 -0.89868,4.41627 -1.35757,0.86099 -1.30268,1.08463 0.25418,1.03563 1.09211,-0.0344 4.36845,-3.74837 7.28075,-8.25331 4.0315,-6.2362 6.08484,-8.23244 8.60453,-8.36523 4.85151,-0.2557 5.38986,1.82422 2.41763,9.34057 -5.48996,13.88336 -4.37163,42.21996 2.125,53.84369 1.86668,3.33985 4.50066,7.07401 5.8533,8.29812 2.37109,2.14582 2.43665,1.98962 1.82716,-4.35351 -0.76923,-8.00555 0.2944,-12.78198 3.08478,-13.85275 3.8808,-1.4892 6.78442,1.61044 9.04042,9.65077 2.55475,9.10507 9.32366,16.99853 20.96004,24.44223 3.90252,2.49641 7.96321,5.58732 9.02378,6.86869 1.06055,1.28137 4.01321,3.2881 6.56148,4.4594 2.54826,1.17129 7.31385,3.69142 10.59019,5.60029 3.27634,1.90888 8.18899,4.17807 10.91703,5.04265 2.72802,0.86458 5.87223,2.86671 6.98712,4.44916 1.65987,2.35598 2.23991,2.53605 3.2019,0.99405 0.91938,-1.47373 2.81671,-0.22807 8.72685,5.72948 6.16957,6.21906 8.12864,7.4679 10.70184,6.82207 1.77378,-0.4452 3.14979,-0.20123 3.14979,0.55844 0,0.74951 3.08844,1.33266 6.94981,1.31222 5.91911,-0.0314 7.51709,-0.61496 10.77483,-3.93533 2.10375,-2.14421 4.3252,-3.58942 4.93654,-3.2116 0.61134,0.37783 5.63333,-3.92374 11.15996,-9.55903 l 10.04845,-10.24599 -1.28526,-5.36941 c -2.42416,-10.12739 1.54067,-24.5459 11.48688,-41.77319 4.33544,-7.50918 5.46274,-8.60453 8.85547,-8.60453 5.4551,0 5.59585,2.88732 0.76501,15.69235 -5.19022,13.75758 -9.05566,34.02912 -5.88402,30.85746 0.48698,-0.48696 1.91247,0.0441 3.16776,1.18011 2.03349,1.84028 2.79149,1.85279 6.95137,0.11464 8.22078,-3.43487 24.1007,-14.97609 30.61999,-22.25406 6.42913,-7.17729 11.14395,-10.63616 12.96452,-9.51099 0.5552,0.34313 1.00945,2.35471 1.00945,4.47018 0,3.08967 -2.58037,6.47034 -13.11694,17.18522 -7.21432,7.33641 -13.43012,14.15505 -13.81289,15.15252 -0.38277,0.99749 -4.92158,4.03412 -10.08623,6.74807 -5.16467,2.71396 -9.1117,5.21306 -8.77119,5.55358 1.06595,1.06595 19.8846,-8.08381 21.70344,-10.55237 0.95138,-1.29123 2.45783,-2.34769 3.34768,-2.34769 3.686,0 26.46309,-26.29985 31.8519,-36.7782 1.22921,-2.39017 2.69774,-8.19003 3.26339,-12.8886 0.56565,-4.69856 1.4081,-8.92247 1.87209,-9.38646 1.6653,-1.6653 4.55365,0.65169 6.85313,5.49745 3.97403,8.37468 0.81081,21.48098 -8.03219,33.27994 -1.73703,2.31766 -3.15823,4.67999 -3.15823,5.24962 0,0.56962 -2.81004,3.88861 -6.24452,7.37554 l -6.24453,6.33986 5.51969,-2.1682 c 3.65687,-1.43647 9.00327,-5.8668 15.84189,-13.12754 14.1249,-14.99674 16.93124,-18.74344 21.90457,-29.24451 4.04327,-8.53726 4.3029,-9.96408 4.3029,-23.64698 0,-8.00883 -0.50294,-15.95231 -1.11763,-17.65218 -1.03748,-2.86897 -0.80009,-3.073 3.30943,-2.84437 2.43488,0.13547 5.1447,0.18595 6.02181,0.11218 4.12699,-0.34709 3.09072,-16.85397 -2.04449,-32.56657 -9.07859,-27.7785 -10.41909,-37.72755 -5.08328,-37.72755 7.01312,0 18.67976,32.33385 20.77741,57.58415 0.60485,7.28076 1.32673,14.26297 1.60419,15.51603 0.77278,3.48991 2.02733,4.14322 2.80721,1.46185 1.35255,-4.65033 7.44244,-39.55186 8.21128,-47.05941 0.9413,-9.19141 4.42157,-14.48329 7.7231,-11.74326 1.52072,1.26208 2.13739,4.00372 2.13739,9.50251 0,18.33264 -4.68097,49.2786 -8.99404,59.45964 -1.07953,2.54827 -3.54838,9.13005 -5.48634,14.62618 -5.09022,14.43621 -23.6835,42.03173 -36.04168,53.49192 -17.45164,16.18351 -34.95628,26.57099 -59.33361,35.20933 -12.98906,4.60279 -13.93588,5.18233 -14.71847,9.00879 -2.11064,10.31986 -16.02911,24.04703 -30.30887,29.89233 -14.09863,5.77115 -17.89901,10.2966 -18.96329,22.58127 -1.06982,12.34878 0.5744,26.14514 3.45979,29.03054 1.247,1.24699 2.26726,3.67071 2.26726,5.38605 0,3.80174 4.63229,7.6446 12.98324,10.77065 9.33672,3.49505 15.6525,8.09304 20.62634,15.01625 4.09182,5.69551 5.14787,6.35823 12.24071,7.68157 4.26939,0.79657 10.21169,1.98598 13.20509,2.64315 6.15144,1.35048 29.56656,-1.15243 41.55141,-4.44155 17.1983,-4.71991 17.89651,-4.78191 30.11297,-2.67369 28.94117,4.99443 46.9899,18.46373 58.36866,43.55905 7.12814,15.72077 8.49618,23.21588 8.95852,49.08042 0.3702,20.71843 0.119,24.35545 -2.01249,29.12302 -4.38852,9.81657 -9.50844,27.45512 -8.70457,29.98791 0.79064,2.49106 -1.5853,12.8504 -3.43993,14.99848 -0.54562,0.63196 -0.70234,3.01475 -0.34827,5.2951 0.35407,2.28034 0.0972,8.61382 -0.57075,14.07439 -0.92374,7.55128 -0.81894,10.24524 0.43776,11.25207 0.90876,0.72808 2.09621,2.80835 2.63878,4.62283 0.92016,3.07717 0.82134,3.1662 -1.46932,1.32377 -2.66415,-2.14283 0.5297,2.95402 7.51881,11.9988 2.00074,2.58922 4.67958,7.3548 5.95298,10.59018 1.2734,3.2354 4.6047,8.51354 7.4028,11.72921 5.5028,6.32382 6.798,9.60309 6.1235,15.5047 -0.3162,2.76721 -1.244,3.91532 -3.4128,4.22334 -1.9758,0.28061 -2.9785,1.33097 -2.9785,3.12012 0,1.75421 -0.641,2.45111 -1.8337,1.99346 -1.0085,-0.38702 -3.1141,0.19321 -4.6791,1.28939 -2.55112,1.78682 -2.78045,2.90231 -2.21635,10.78039 0.40177,5.61112 0.0739,9.45647 -0.90717,10.63855 -0.96114,1.1581 -1.54128,7.36872 -1.54952,16.58805 -0.007,8.10526 -0.4014,12.94975 -0.87592,10.76552 -0.7303,-3.3616 -0.88681,-3.00593 -1.01939,2.3166 -0.15926,6.39432 -1.40718,7.54939 -5.41677,5.01376 -1.2555,-0.79396 -2.2651,-0.72494 -2.83284,0.19366 -1.22178,1.97689 -2.58532,-6.99321 -3.9382,-25.90761 -1.49878,-20.95414 -2.54309,-28.93737 -4.02459,-30.76596 -0.73668,-0.90927 -0.68109,-2.88529 0.14204,-5.05032 0.74374,-1.95616 1.35224,-6.41976 1.35224,-9.91912 0,-9.93995 -15.12101,-33.8084 -34.61575,-54.64084 -2.86299,-3.05945 -5.20261,-7.14412 -5.74353,-10.02744 -0.88452,-4.71493 -13.01665,-21.46104 -15.54799,-21.46104 -0.64363,0 -3.36919,1.73498 -6.05678,3.85552 -2.68759,2.12054 -6.02856,4.05656 -7.42437,4.30226 -3.12356,0.54986 -4.44137,3.75618 -1.54378,3.75618 1.15278,0 2.07702,0.44678 2.05387,0.99283 -0.0751,1.76933 -3.50595,5.60806 -4.30136,4.81264 -0.42475,-0.42474 -0.45039,0.45855 -0.0571,1.96287 0.39339,1.50431 1.54442,3.42327 2.55785,4.26436 1.01344,0.84107 1.84261,2.81297 1.84261,4.38202 0,1.56904 0.82862,4.03581 1.84139,5.48173 1.01275,1.44592 2.72645,5.59942 3.80821,9.23001 3.21348,10.78498 6.00788,16.52939 8.04084,16.52939 2.38477,0 3.96075,3.79909 2.40346,5.79383 -0.63847,0.81781 -1.27591,5.21666 -1.41653,9.77524 -0.19855,6.4359 0.20372,8.46459 1.79988,9.07708 2.65159,1.01752 2.74066,7.12442 0.10392,7.12442 -1.07342,0 -2.89545,-1.82508 -4.04898,-4.05575 -1.15352,-2.23066 -2.80699,-3.82291 -3.67437,-3.53833 -2.63875,0.86576 -7.63792,9.25266 -7.24309,12.15145 0.21787,1.59961 -0.30399,2.58945 -1.26471,2.3988 -1.80243,-0.35769 -8.5677,12.00451 -8.87091,16.20987 -0.10497,1.45615 -0.84789,2.51979 -1.65086,2.36364 -0.80299,-0.15614 -2.20128,1.50575 -3.10731,3.6931 -1.68535,4.06879 -5.90488,7.84288 -8.76855,7.84288 -2.91961,0 -3.03922,-4.52199 -0.36766,-13.89962 10.4742,-36.76624 11.36024,-45.14208 5.8681,-55.47138 -1.82019,-3.4233 -3.30943,-7.40963 -3.30943,-8.85849 0,-1.44887 -2.53172,-5.97077 -5.62604,-10.04868 -3.09432,-4.0779 -7.71098,-11.2422 -10.25925,-15.92066 -2.70683,-4.96959 -6.3715,-9.59083 -8.81409,-11.1148 l -4.18089,-2.60852 -3.25215,7.10363 c -1.78869,3.907 -3.95872,9.24455 -4.8223,11.86123 -0.86358,2.61666 -2.43323,5.47387 -3.48809,6.34933 -1.05487,0.87547 -1.91795,2.7398 -1.91795,4.14295 0,1.40316 -1.00948,4.45764 -2.24331,6.78773 -1.23381,2.33009 -2.43402,5.36122 -2.66712,6.73584 -0.2331,1.37462 -2.13272,6.1402 -4.22137,10.59019 -5.21483,11.11049 -6.24668,14.86411 -9.35363,34.02672 -2.12786,13.12392 -2.39155,17.56203 -1.23979,20.86601 0.80462,2.30811 1.0174,5.23157 0.47285,6.49659 -0.93451,2.17095 -1.1235,5.11679 -1.88847,29.43741 -0.17176,5.46056 -0.79794,10.52639 -1.39152,11.25738 -0.59359,0.731 -1.27685,3.41164 -1.51836,5.95698 -0.62578,6.59551 -5.3211,7.1805 -8.58473,1.06959 z m 175.00781,-261.8583 c -0.45209,-4.00442 -2.05647,-9.9614 -3.56528,-13.23774 -7.42957,-16.13299 -12.92646,-25.9394 -15.2116,-27.13736 -1.38881,-0.72808 -4.44876,-2.70466 -6.79991,-4.3924 -5.05595,-3.62938 -5.44559,-2.05229 -1.17347,4.74965 1.70575,2.71581 2.86602,5.62689 2.57841,6.46907 -0.28762,0.84217 0.61085,2.33141 1.99662,3.30943 3.7124,2.62008 7.29047,10.01404 5.21077,10.76791 -1.29431,0.46918 -1.29022,1.17675 0.0197,3.39524 0.9101,1.54139 1.65472,3.73933 1.65472,4.88428 0,1.14496 0.63555,1.68897 1.41231,1.20889 0.77678,-0.48007 1.2651,-0.0684 1.08519,0.91471 -0.54088,2.95555 3.17168,13.26628 5.03407,13.98095 0.95416,0.36614 1.73485,1.85712 1.73485,3.31327 0,1.8095 0.62852,2.40635 1.98566,1.88557 1.27719,-0.4901 2.0156,0.0498 2.06957,1.51308 0.0573,1.55498 0.51224,1.22757 1.43716,-1.03437 0.74793,-1.82911 0.98557,-6.56612 0.53128,-10.59018 z M 964.79157,591.8592 c 0,-1.09211 -0.91704,-1.98566 -2.03786,-1.98566 -1.68371,0 -1.74121,0.33632 -0.33094,1.9353 2.1699,2.46025 2.3688,2.46449 2.3688,0.0503 z m -5.2951,-5.95698 c 0,-0.72808 -0.63086,-1.32377 -1.4019,-1.32377 -0.77105,0 -1.03374,0.59569 -0.58376,1.32377 0.44998,0.72807 1.08084,1.32377 1.4019,1.32377 0.32107,0 0.58376,-0.5957 0.58376,-1.32377 z M 733.13118,429.69693 c 0,-0.72808 -0.44678,-1.3319 -0.99283,-1.34185 -0.54606,-0.0106 -2.33315,-0.37727 -3.97132,-0.81629 -1.70064,-0.45575 -2.9785,-0.20353 -2.9785,0.5879 0,1.19311 1.23843,1.67668 6.94982,2.71374 0.54605,0.0991 0.99283,-0.41543 0.99283,-1.1435 z M 718.8073,421.9517 c -3.84752,-4.0492 -12.21475,-9.46383 -14.62445,-9.46383 -2.64564,0 -1.5989,2.6749 1.50916,3.85658 1.6542,0.62892 5.58282,3.295 8.73027,5.92463 6.56433,5.48434 9.68329,5.25861 4.38502,-0.31738 z m 210.08251,-49.97149 c 6.48155,-7.36344 11.34938,-15.77084 12.51994,-21.62369 0.70945,-3.54721 -0.5852,-2.28091 -7.49311,7.32905 -9.43362,13.12358 -12.66718,15.61567 -8.05893,6.21098 3.64552,-7.43988 4.10112,-11.24428 1.21391,-10.13635 -1.08793,0.41748 -1.64847,1.29233 -1.24565,1.94412 0.40282,0.65178 0.10156,1.18506 -0.66948,1.18506 -0.77105,0 -1.40191,0.81851 -1.40191,1.81892 0,1.00041 -1.51249,4.52508 -3.3611,7.83259 -2.13153,3.81373 -2.85615,6.32573 -1.9808,6.86673 0.76195,0.47091 1.00129,2.36315 0.53427,4.2239 -0.76909,3.06431 -0.60127,3.23984 1.84561,1.93031 1.4804,-0.79229 5.12416,-4.20401 8.09725,-7.58162 z m 2.12064,-29.37778 c 0.83631,-9.22595 -1.17018,-11.35977 -2.38025,-2.53132 -0.42862,3.12724 -1.16149,6.85036 -1.62857,8.27359 -0.69189,2.10819 -0.58457,2.21975 0.57912,0.60204 1.21643,-1.69101 1.4314,-1.60916 1.44866,0.55157 0.042,5.26129 1.26488,1.00462 1.98104,-6.89588 z m -316.17204,-2.59117 c -0.25317,-1.27413 -1.38623,-4.40154 -2.51791,-6.94981 -1.13167,-2.54826 -2.47634,-6.86707 -2.98814,-9.59736 -0.51181,-2.73028 -1.44507,-4.96415 -2.07391,-4.96415 -1.74462,0 0.0497,7.73214 3.76308,16.21623 3.38211,7.72715 4.64947,9.48533 3.81688,5.29509 z m 11.50772,-25.17573 c -0.61425,-10.02658 -0.25389,-12.96295 2.71816,-22.14918 3.83631,-11.8575 3.9639,-12.57584 2.23368,-12.57584 -0.67453,0 -2.85238,3.32335 -4.83967,7.38523 -2.9636,6.05736 -3.71839,9.68708 -4.19799,20.18754 -0.34714,7.60028 0.005,14.3139 0.86587,16.52236 2.57526,6.6042 3.95295,2.59509 3.21995,-9.37011 z m 318.0419,-0.30691 c 0.59509,-4.00442 0.98908,-8.47215 0.87552,-9.9283 -0.11358,-1.45615 -0.33064,-4.85682 -0.4824,-7.55703 -0.45699,-8.13122 -2.21663,-4.35822 -3.0655,6.57303 -0.43781,5.63773 -1.07257,13.52675 -1.41059,17.53117 -0.56772,6.72566 -0.47675,7.02844 1.19319,3.97132 0.99428,-1.82019 2.29468,-6.58577 2.88978,-10.59019 z M 589.0388,281.63534 c 0.98269,-3.16575 2.38241,-5.72705 3.11048,-5.69178 1.23205,0.0597 5.77742,-7.18157 5.9015,-9.40173 0.0305,-0.54606 -1.42577,-0.99284 -3.23619,-0.99284 -3.48433,0 -5.40607,3.19674 -9.54954,15.88529 -2.43086,7.44403 -4.24749,21.18038 -2.80111,21.18038 0.59445,0 1.08895,2.23387 1.09889,4.96415 0.01,2.73028 0.45671,6.4534 0.99283,8.27358 0.62345,2.11672 1.285,-2.41563 1.83559,-12.57585 0.47347,-8.7369 1.66486,-18.47544 2.64755,-21.6412 z"
       style="stroke-width:1;fill:#c3eaf9;" filter="url(#sofGlow)" />
</svg>
