<?xml version="1.0" encoding="UTF-8" standalone="no"?>
<!-- Created with Inkscape (http://www.inkscape.org/) -->

<svg
   xmlns:dc="http://purl.org/dc/elements/1.1/"
   xmlns:cc="http://creativecommons.org/ns#"
   xmlns:rdf="http://www.w3.org/1999/02/22-rdf-syntax-ns#"
   xmlns:svg="http://www.w3.org/2000/svg"
   xmlns="http://www.w3.org/2000/svg"
   xmlns:sodipodi="http://sodipodi.sourceforge.net/DTD/sodipodi-0.dtd"
   xmlns:inkscape="http://www.inkscape.org/namespaces/inkscape"
   version="1.1"
   id="svg10"
   width="422.00378"
   height="623.9884"
   viewBox="0 0 422.00377 623.9884"
   sodipodi:docname="headericon.svg"
   inkscape:version="0.92.4 (5da689c313, 2019-01-14)">
  <metadata
     id="metadata16">
    <rdf:RDF>
      <cc:Work
         rdf:about="">
        <dc:format>image/svg+xml</dc:format>
        <dc:type
           rdf:resource="http://purl.org/dc/dcmitype/StillImage" />
        <dc:title></dc:title>
      </cc:Work>
    </rdf:RDF>
  </metadata>
  <defs
     id="defs14" />
  <sodipodi:namedview
     pagecolor="#ffffff"
     bordercolor="#666666"
     borderopacity="1"
     objecttolerance="10"
     gridtolerance="10"
     guidetolerance="10"
     inkscape:pageopacity="0"
     inkscape:pageshadow="2"
     inkscape:window-width="1920"
     inkscape:window-height="1017"
     id="namedview12"
     showgrid="false"
     inkscape:pagecheckerboard="true"
     inkscape:zoom="1.06"
     inkscape:cx="205.72191"
     inkscape:cy="312.29987"
     inkscape:window-x="-8"
     inkscape:window-y="-8"
     inkscape:window-maximized="1"
     inkscape:current-layer="g20"
     fit-margin-top="0"
     fit-margin-left="0"
     fit-margin-right="0"
     fit-margin-bottom="0" />
  <g
     id="g20"
     transform="translate(-327.61146,-88.311471)">
    <path
       style="display:inline;fill:#3becc3;stroke-width:1.33333337"
       d="m 493.97399,680.45193 c -19.78568,-17.96241 -36.15135,-33.14448 -36.36815,-33.73793 -0.21679,-0.59345 3.86903,-21.39688 9.0796,-46.22984 5.21057,-24.83296 9.50473,-46.65083 9.54257,-48.48416 0.0379,-1.83333 -4.23621,-12.11804 -9.4979,-22.85491 l -9.5667,-19.52158 6.63756,-13.22687 c 5.10006,-10.16305 9.53238,-23.71368 9.53238,-29.14269 0,-0.14098 -3.75,1.06698 -8.33334,2.68433 l -8.33333,2.94064 -17.35181,-3.27468 -17.35182,-3.27468 -14.21668,-24.81851 c -7.81917,-13.65018 -14.05837,-24.97681 -13.86488,-25.1703 0.1935,-0.1935 14.09931,4.80868 30.90183,11.11593 16.80252,6.30725 35.14029,13.14604 40.75063,15.19728 l 10.20061,3.72955 -2.804,-6.74718 -2.804,-6.74717 -22.84544,-10.97009 -22.84544,-10.9701 -3.55215,-17.80782 c -1.95368,-9.7943 -3.5517,-18.64818 -3.55116,-19.6753 5.4e-4,-1.0271 4.65098,4.6729 10.33431,12.66667 9.93452,13.9732 10.71928,14.72225 20.33333,19.40789 5.5,2.68056 10.14322,4.73735 10.31824,4.57066 0.17503,-0.16671 -1.92497,-6.76796 -4.66666,-14.66947 l -4.98491,-14.36637 -13.33333,-12.36956 c -9.381,-8.70292 -20.84278,-17.22111 -38.66667,-28.7364 -13.93333,-9.00176 -25.74212,-16.72739 -26.24174,-17.16806 -0.93744,-0.82681 -17.3518,-68.3224 -16.75788,-68.90809 0.18312,-0.18059 6.37884,10.56959 13.76827,23.88927 L 380.87065,302 l 11.67979,8.44045 c 6.42388,4.64224 11.92048,8.19975 12.21465,7.90558 0.29419,-0.29418 -1.57212,-6.82698 -4.14734,-14.51734 -3.98672,-11.9055 -5.89616,-15.45644 -12.85475,-23.90557 -4.49491,-5.45772 -18.8804,-23.33552 -31.96778,-39.72844 l -23.79521,-29.80532 v -10.32319 c 0,-5.67774 -0.37692,-15.96534 -0.83759,-22.86134 -0.53636,-8.0288 -0.377,-12.05863 0.4431,-11.20483 0.70438,0.73333 3.86145,8.23333 7.0157,16.66667 4.79386,12.81701 7.50258,17.6952 16.50571,29.72549 9.54641,12.75621 10.89199,14.06428 11.83772,11.50773 2.84435,-7.68902 1.44336,-12.30296 -13.48857,-44.4225 -8.14518,-17.52076 -14.8094,-32.37676 -14.8094,-33.01332 0,-1.61658 21.64677,-58.595074 22.09184,-58.150005 0.19932,0.199322 -0.76055,12.848065 -2.13306,28.108325 -1.63917,18.22529 -2.07157,28.86082 -1.26012,30.99509 0.67943,1.78705 1.48443,3.24919 1.78888,3.24919 0.30444,0 7.28506,-9 15.51246,-20 8.2274,-11 15.14484,-20 15.37207,-20 0.22724,0 -2.1831,10.05 -5.35631,22.33333 -4.65727,18.028 -5.93964,25.57873 -6.65216,39.16836 l -0.88268,16.83504 6.29379,14.83163 c 3.46158,8.1574 6.65337,14.82588 7.09288,14.81884 0.43949,-0.007 3.43381,-6.31051 6.65405,-14.00768 l 5.85497,-13.99487 -1.68049,-12.29725 c -0.92428,-6.7635 -1.91083,-12.91004 -2.19235,-13.659 -0.43352,-1.15334 23.55987,-30.43942 31.70194,-38.69507 2.51394,-2.54902 2.50266,-2.34313 -0.25558,4.66667 -5.87589,14.93298 -10.53304,28 -9.97933,28 0.31372,0 2.01325,-0.65742 3.77676,-1.46092 2.50796,-1.14271 5.35323,-6.63071 13.06273,-25.19567 5.421,-13.05412 10.0486,-23.55448 10.28354,-23.33414 0.23494,0.22034 -2.0877,12.98579 -5.1614,28.36766 l -5.58858,27.96705 -7.6082,9.56924 c -6.5792,8.27503 -8.45384,12.03867 -13.86084,27.828 -5.94081,17.34818 -6.24829,18.95699 -6.16544,32.25878 l 0.0872,14 5.6944,-12.0117 c 5.64106,-11.89918 5.6901,-12.13021 5.2365,-24.66666 l -0.4579,-12.65498 5.87942,11.33462 5.8794,11.33461 -2.00635,11.86299 c -1.57483,9.31152 -3.07948,13.56018 -6.99581,19.75413 l -4.98947,7.89116 0.67571,18.78923 0.6757,18.78922 7.06816,15.45536 c 7.14026,15.61303 9.81748,18.7266 16.13871,18.76903 2.3832,0.016 3.49716,-1.53176 5.98359,-8.31368 1.68037,-4.58333 2.88069,-8.93333 2.66737,-9.66667 C 450.69937,314.6 448.19833,308 445.35481,300.66667 c -8.0042,-20.6426 -8.27273,-21.42018 -6.90708,-20 0.70518,0.73333 6.7567,8.70553 13.44783,17.716 l 12.16568,16.38266 -2.48497,15.4428 c -2.44399,15.18807 -2.44196,15.65447 0.12266,28.27492 2.53544,12.47703 2.92564,13.27512 14.10056,28.8412 16.14263,22.48583 36.68199,47.89819 37.27514,46.11872 0.27428,-0.82282 -7.73167,-34.65616 -17.79099,-75.18516 l -18.28967,-73.6891 26.50305,-45.54918 c 14.57668,-25.05205 26.90238,-45.13001 27.39046,-44.61769 0.48808,0.51232 12.60112,21.03149 26.91787,45.59816 L 583.83579,284.66667 581.88834,292 c -1.66154,6.25667 -32.54911,131.04887 -34.56919,139.66667 -1.60176,6.83322 2.50916,2.01817 11.95265,-14 l 10.02232,-17 0.0324,-19.33334 0.0324,-19.33333 10.2542,-13.62192 c 5.63982,-7.49205 10.42957,-13.44656 10.6439,-13.23224 0.21432,0.21433 -1.73176,6.64419 -4.32463,14.28859 -4.70915,13.88373 -4.71253,13.91097 -3.09979,24.95837 0.88799,6.08269 2.04672,11.32657 2.57498,11.65305 0.52824,0.32647 1.36309,-2.25029 1.85523,-5.72613 0.83005,-5.8626 1.8586,-7.23863 14.21961,-19.02363 l 13.32483,-12.70389 -3.29251,-13.96275 c -1.81088,-7.6795 -3.11847,-14.13677 -2.90577,-14.34948 0.2127,-0.21269 2.91029,2.62739 5.99464,6.31131 l 5.6079,6.69803 5.89427,-4.927 5.89428,-4.927 v -13.08059 c 0,-12.53687 -0.2152,-13.50888 -5.17707,-23.38432 -4.35632,-8.67023 -5.41142,-12.46208 -6.65529,-23.91807 l -1.47821,-13.61432 10.076,-16.71901 C 634.30723,223.52355 639.06018,216 639.32755,216 c 0.26736,0 -2.04185,7.65 -5.13158,17 -4.7101,14.25349 -5.5385,18.32789 -5.12748,25.21919 l 0.49021,8.21917 7.60612,5.33539 7.60612,5.33538 3.05679,-8.52329 c 2.90226,-8.09243 3.00905,-9.65389 2.11248,-30.88791 -0.84832,-20.09142 0.2749,-41.6457 2.88017,-55.26921 0.60212,-3.14857 -0.34643,-4.3322 -8.01392,-10 -4.78328,-3.5358 -8.72153,-7.16663 -8.75167,-8.06851 -0.0617,-1.84961 14.08647,-54.34379 15.67459,-58.15733 0.56431,-1.35508 0.78693,7.44023 0.49472,19.54514 -0.50709,21.00583 -0.39157,22.25755 2.53449,27.46379 1.68619,3.00018 3.45074,5.45486 3.9212,5.45486 0.47047,0 2.24468,-1.47883 3.9427,-3.28628 l 3.08729,-3.28628 -2.19163,-16.38039 c -1.2054,-9.00921 -2.18866,-16.98039 -2.18505,-17.71372 0.004,-0.73333 4.56937,6.76667 10.14612,16.66667 l 10.13953,18 L 675.63566,164 c -6.33255,11.99529 -9.1576,22.57791 -11.56791,43.33333 -2.03929,17.56054 -1.9297,18.66443 2.03219,20.46959 1.88828,0.86036 4.13828,1.13125 5,0.60197 5.65181,-3.4714 35.57671,-29.03236 36.11042,-30.84445 0.36076,-1.22491 1.00946,-6.42711 1.44157,-11.56044 0.74701,-8.87433 0.3592,-10.64164 -7.88583,-35.93619 -4.76932,-14.63156 -8.54277,-26.71814 -8.38545,-26.85905 0.76441,-0.68468 32.18525,45.67333 32.14911,47.43249 -0.0229,1.11618 -0.49202,4.90439 -1.0424,8.41826 l -1.00071,6.38884 5.02153,-2.09814 c 2.76184,-1.15397 5.27675,-2.35334 5.58868,-2.66528 0.81203,-0.81201 0.34738,-26.88172 -0.60625,-34.01426 -1.20407,-9.00572 0.83279,-5.65387 9.45023,15.55132 l 7.67441,18.88466 -8.28092,15.11534 -8.28091,15.11534 -23.52669,14.43495 c -28.44699,17.45381 -27.34176,15.94997 -43.6285,59.36365 -10.79133,28.76522 -12.13721,34.66024 -8.43553,36.948 0.642,0.39679 7.67984,-2.90796 15.63965,-7.34386 l 14.4724,-8.06527 1.62151,-7.24569 c 1.66519,-7.44084 1.50907,-8.62354 -3.1426,-23.8067 -2.247,-7.33422 -2.18427,-7.32288 8.61303,1.55767 4.03333,3.31733 7.84804,6.45451 8.47711,6.97149 1.09153,0.89704 -3.42623,25.56996 -5.71543,31.21386 -0.60116,1.48212 -8.51847,7.3146 -17.59402,12.96106 -14.43328,8.97984 -17.57394,11.61187 -25.06334,21.00424 l -8.56235,10.73794 -13.03515,4.04972 c -10.97014,3.40816 -14.61082,5.30746 -22.98138,11.98916 -15.40635,12.29792 -16.44175,19.7433 -3.12994,22.50682 6.07822,1.26184 8.30471,1.0866 15.86563,-1.24873 4.83735,-1.49411 9.09856,-3.50715 9.46935,-4.47341 0.3708,-0.96627 1.10302,-5.76142 1.62717,-10.65588 0.52416,-4.89446 1.35079,-8.89902 1.83696,-8.89902 0.84344,0 8.20981,25.87924 8.16176,28.67356 -0.0133,0.73714 -9.76757,4.63714 -21.67756,8.66667 L 600.69097,418 l -7.6788,13.84091 c -4.22335,7.61249 -7.67882,13.98638 -7.67882,14.16421 0,0.17781 18.15,-6.43829 40.33334,-14.70248 22.18333,-8.26419 40.5467,-14.82471 40.8075,-14.57893 0.4582,0.43181 -25.84494,46.99553 -27.60478,48.86796 -0.47816,0.50876 -8.66939,2.36702 -18.20272,4.12948 -17.14314,3.16932 -17.40338,3.17745 -23.71603,0.74166 C 593.44018,469.10827 589.92205,468 589.13261,468 c -2.94991,0 0.42866,12.90133 6.92509,26.44403 3.63495,7.57754 6.60899,14.47061 6.60899,15.31792 0,0.8473 -4.27652,10.45505 -9.50338,21.35056 l -9.50336,19.81 7.65988,36.87208 c 4.21295,20.27964 8.72875,41.81594 10.03514,47.85844 l 2.37522,10.98637 -35.53175,32.41435 c -19.54246,17.82788 -36.14346,32.78396 -36.89112,33.23572 -0.74765,0.45177 -17.54765,-13.87512 -37.33333,-31.83754 z m 67.24545,0.96588 c 15.70402,-14.34646 30.92934,-28.1996 33.83403,-30.78474 l 5.28126,-4.70028 -8.85755,-43.29972 c -4.87166,-23.81486 -9.29696,-44.35074 -9.83402,-45.63531 -0.79121,-1.89244 -2.54702,-0.34732 -9.25434,8.14385 -8.25895,10.45548 -8.2815,10.50804 -9.86354,23.00224 l -1.58566,12.52282 -8.58486,10.33333 -8.58485,10.33333 -13.55161,-0.032 -13.55162,-0.032 -7.78308,-9.3827 c -8.53508,-10.28928 -9.6344,-12.94703 -10.9726,-26.52762 -0.86501,-8.77849 -1.28593,-9.65764 -9.70392,-20.2678 -7.00357,-8.8274 -8.90829,-10.54696 -9.33179,-8.42458 -0.29266,1.46666 -4.62506,22.09217 -9.62756,45.83445 l -9.09545,43.16779 6.92387,6.32425 c 46.08501,42.09408 63.07851,56.99577 64.22364,56.31807 0.75179,-0.44491 14.21564,-12.54695 29.91965,-26.89342 z M 524.40002,612.66667 C 526.96668,610.1 529.60943,608 530.27279,608 c 0.66336,0 3.55924,2.15537 6.43528,4.78972 l 5.22916,4.78973 6.27108,-7.12306 c 3.44909,-3.91768 5.86321,-7.49183 5.36472,-7.94255 -0.49849,-0.45072 -6.03411,-1.86884 -12.30137,-3.15139 -10.82502,-2.21524 -11.92551,-2.21629 -22,-0.0212 -5.83274,1.27091 -11.03594,2.7 -11.56267,3.17575 -0.96236,0.86921 9.53612,14.80716 11.15769,14.81311 0.47667,10e-4 2.96667,-2.09683 5.53334,-4.6635 z m 11.6,3.55864 c 0,-0.60942 -1.52082,-1.92194 -3.37958,-2.91672 -3.03624,-1.62495 -3.67589,-1.51238 -6.29629,1.10802 l -2.91672,2.91672 h 6.29629 c 3.46296,0 6.2963,-0.49861 6.2963,-1.10802 z m -19.09644,-19.33027 13.13825,-3.10496 13.27063,3.03564 c 7.29885,1.6696 13.47605,2.83023 13.72712,2.57916 0.57598,-0.57599 2.89772,-16.48836 2.93362,-20.10607 0.0179,-1.80545 -3.0598,-5.01105 -9.28113,-9.66674 -5.45977,-4.0858 -9.56047,-8.20582 -9.91875,-9.96548 -1.00108,-4.91692 -3.57741,-27.9822 -3.15952,-28.28652 0.21242,-0.1547 3.12487,-2.13071 6.47211,-4.39115 l 6.08589,-4.10988 5.57118,3.56048 c 3.06414,1.95827 5.57549,4.01048 5.58077,4.56048 0.0173,1.80291 -2.84101,1.0506 -6.84745,-1.80224 l -3.93538,-2.80223 -5.04922,3.34142 -5.04922,3.34141 1.73079,13.12748 c 0.95192,7.22012 1.75237,13.5054 1.77876,13.96729 0.0569,0.99515 13.93811,11.61258 16.43496,12.57071 3.63096,1.39332 19.95509,-21.842 30.17024,-42.94351 l 9.77858,-20.19968 -6.81087,-13.80032 c -5.69504,-11.53945 -7.27667,-16.44788 -9.65415,-29.96086 l -2.84328,-16.16054 -15.53509,-6.1728 c -8.5443,-3.39504 -16.44107,-6.1728 -17.54838,-6.1728 -1.50769,0 -3.64884,6.61306 -8.5261,26.33334 -3.58206,14.48333 -7.11458,28.43333 -7.85003,31 -1.24015,4.32797 -1.88977,2.44096 -8.95081,-26 -5.42672,-21.85814 -8.18778,-30.78112 -9.61252,-31.06512 -3.40754,-0.67926 -32.83899,11.76158 -33.55253,14.18284 -0.3591,1.21858 -1.92284,9.05748 -3.47497,17.41977 -2.18181,11.75481 -4.16303,17.87421 -8.73288,26.97336 -3.25097,6.47305 -5.91085,12.54279 -5.91085,13.48828 0,4.90445 18.97115,40.52735 27.44685,51.53811 5.0709,6.58758 9.64974,12.01162 10.1752,12.05342 0.52546,0.0419 4.80866,-2.7185 9.5182,-6.13402 l 8.56283,-6.21002 0.86636,-8.12332 c 0.47649,-4.46781 1.20875,-10.88392 1.62721,-14.25801 0.73446,-5.92177 0.59384,-6.23795 -4.05122,-9.10875 l -4.8121,-2.97404 -4.4907,2.77542 c -4.91972,3.04056 -6.17596,3.36992 -6.17596,1.61926 0,-0.63589 2.33594,-2.70201 5.191,-4.5914 l 5.19098,-3.43522 6.14235,3.89534 c 7.03905,4.46404 7.11493,4.85624 4.65331,24.05098 l -1.48903,11.61082 -9.8496,7.14615 c -7.62449,5.53179 -9.72063,7.74856 -9.27872,9.81281 0.31399,1.46667 0.98627,6.71667 1.49396,11.66667 0.50769,4.95 1.10036,9 1.31705,9 0.2167,0 6.30622,-1.39723 13.53226,-3.10496 z m 0.19074,-20.03897 -3.57234,-4.4772 8.1013,-5.59035 c 4.45571,-3.07469 8.85403,-5.30151 9.77403,-4.94848 4.52971,1.73821 15.1796,10.57465 14.40532,11.95239 -3.51393,6.25257 -6.19653,7.5409 -15.70169,7.54086 -9.1078,-4e-5 -9.55787,-0.15496 -13.00662,-4.47722 z m 24.34612,-1.65178 c 1.47602,-1.77849 1.44802,-2.31246 -0.17008,-3.24313 -1.06536,-0.61275 -3.97169,-2.63116 -6.45852,-4.48535 l -4.5215,-3.37124 -5.81183,4.17374 c -3.19651,2.29556 -5.81183,4.55204 -5.81183,5.01438 0,4.3628 19.38876,5.99027 22.77376,1.9116 z m -42.77376,-64.16285 c -10.63333,-2.58 -19.49944,-4.83589 -19.70245,-5.01308 C 478.28743,505.43767 483.13739,480 483.92682,480 c 0.4273,0 8.86024,8.1 18.73986,18 9.87963,9.9 17.37128,17.93979 16.64815,17.86617 -0.72315,-0.0736 -10.01481,-2.24473 -20.64815,-4.82473 z m 0.003,-13.03917 c -13.97053,-14.02887 -13.69097,-14.01534 -15.45099,-0.74771 -0.82014,6.1826 -0.67144,6.66384 2.28576,7.39701 17.53078,4.34636 23.35747,5.74375 24.46998,5.86851 0.71885,0.0807 -4.36828,-5.55239 -11.30475,-12.51781 z m 59.93297,0.22289 c 9.86438,-9.97287 18.09819,-17.96952 18.29736,-17.77035 0.71843,0.71843 4.43408,19.791 4.43408,22.76031 0,2.80548 -1.41874,3.38009 -18.33333,7.42544 -10.08333,2.41155 -19.23333,4.68444 -20.33333,5.05087 -1.1,0.36642 6.07085,-7.4934 15.93522,-17.46627 z m 8.39811,8.33432 c 6.41667,-1.5878 11.62967,-3.26324 11.58445,-3.7232 -0.0452,-0.45995 -0.7999,-4.59347 -1.67708,-9.1856 l -1.59486,-8.34932 -12.65626,12.8184 c -6.96094,7.05012 -11.45625,12.48275 -9.98958,12.07251 1.46666,-0.41024 7.91666,-2.045 14.33333,-3.63279 z M 465.8324,466.61503 c 7.23291,-2.70619 7.26947,-2.7484 8.19224,-9.45778 0.5098,-3.7067 0.41291,-7.21648 -0.21532,-7.79949 -0.62864,-0.58303 -12.84264,-5.38297 -27.14264,-10.66656 -14.3,-5.28359 -30.70443,-11.35555 -36.45427,-13.49324 l -10.45426,-3.88673 5.03889,9.01105 c 2.77139,4.95608 8.15295,14.41105 11.95901,21.01105 l 6.92012,12 13.82859,2.85056 c 17.76949,3.66294 19.6144,3.69102 28.32723,0.43114 z m 88.11214,-90.81916 22.2685,-90.20415 -22.43964,-38.75425 c -12.3418,-21.31484 -22.90745,-38.61704 -23.47921,-38.44934 -0.57176,0.16771 -11.11816,17.58139 -23.43645,38.69708 l -22.39688,38.39218 22.7217,91.91917 c 12.49695,50.55555 23.12036,91.17313 23.60759,90.26131 0.48724,-0.91183 10.90671,-42.24974 23.15439,-91.862 z m 67.34247,90.6618 15.72214,-2.87566 12.154,-21.2638 c 7.6938,-13.46054 11.30078,-20.92756 9.82898,-20.34753 -1.27876,0.50395 -14.92503,5.60583 -30.32503,11.33753 -15.4,5.7317 -31.45019,11.72531 -35.66708,13.31915 l -7.66708,2.89788 0.84544,5.57071 c 1.18987,7.8402 2.08541,9.04452 8.66483,11.65244 7.69848,3.05148 8.20118,3.04596 26.4438,-0.29072 z M 493.37947,439.91813 c 7.64247,-2.97836 14.07784,-5.59765 14.30083,-5.82064 0.223,-0.223 -3.99196,-5.73616 -9.36658,-12.25146 -5.3746,-6.51532 -15.82689,-20.24603 -23.22729,-30.5127 l -13.45528,-18.66666 -2.70678,-13.33334 c -2.60428,-12.82848 -2.62596,-13.92082 -0.5725,-28.84909 l 2.13425,-15.51576 -6.24305,-8.40123 c -3.43368,-4.62068 -6.24306,-8.09202 -6.24306,-7.71412 0,0.37791 1.52939,4.45095 3.39863,9.05118 l 3.39863,8.36406 -3.57799,9.53248 c -1.96789,5.24287 -4.01,10.0152 -4.538,10.60519 -0.52801,0.58999 -4.10371,0.27624 -7.94599,-0.69723 l -6.98597,-1.76992 -7.83764,-17.12997 -7.83765,-17.12996 -0.90218,-19.09375 -0.90218,-19.09374 5.3658,-8.55791 c 4.37514,-6.97793 5.67522,-10.63776 7.0418,-19.82324 1.4708,-9.88605 1.41604,-11.74559 -0.44724,-15.18783 L 424.10679,214 l -0.0533,5.55055 c -0.0392,4.07054 -2.45316,10.46993 -9.05338,24 L 406.00001,262 l -0.3718,-19.30419 -0.3718,-19.3042 6.81062,-20.13078 c 6.05438,-17.89554 7.6596,-21.19862 14.4565,-29.74746 7.12762,-8.96478 7.80314,-10.43685 9.96539,-21.71637 1.27572,-6.65484 2.08432,-12.33489 1.79688,-12.62232 -0.28743,-0.28744 -2.25155,3.77217 -4.36469,9.02135 -3.68614,9.1565 -4.1346,9.6733 -11.04734,12.73044 -3.96288,1.75257 -7.36454,3.01108 -7.55926,2.79668 -0.19472,-0.2144 1.38536,-4.88982 3.51128,-10.38982 2.12593,-5.5 4.24717,-11.2 4.71386,-12.66666 0.4667,-1.46667 -4.0388,2.97077 -10.01221,9.86097 -6.18908,7.13896 -10.85997,13.73449 -10.85893,15.33333 10e-4,1.54314 0.86654,7.71922 1.92344,13.72462 l 1.92161,10.91892 -7.35039,17.08108 c -4.0427,9.3946 -7.78196,17.52478 -8.30945,18.06709 -0.52748,0.54231 -4.46279,-7.25769 -8.74511,-17.33333 L 374.32257,190 l 0.88967,-18 c 0.64837,-13.11819 1.93911,-22.15857 4.75913,-33.33333 2.1282,-8.43334 3.15528,-14.40494 2.28239,-13.27022 -0.87289,1.13471 -6.59887,8.78194 -12.72439,16.99383 -6.12551,8.21189 -11.57297,14.66145 -12.10547,14.33236 -0.53249,-0.32911 -1.7192,-3.77633 -2.63712,-7.66051 -1.28313,-5.42958 -1.3358,-10.25409 -0.22785,-20.87007 0.7926,-7.59437 1.41123,-15.09437 1.37475,-16.66667 -0.0365,-1.5723 -3.32762,5.65921 -7.31364,16.07002 l -7.24731,18.92874 15.33355,33.16258 15.33354,33.1626 -1.59229,10.242 c -0.87576,5.6331 -1.95296,10.242 -2.39377,10.242 -0.44082,0 -6.54654,-7.65 -13.56826,-17 C 345.94534,204.96139 340.7183,196.57448 338.69681,191 c -1.66207,-4.58333 -3.24877,-8.33333 -3.52604,-8.33333 -0.27725,0 -0.50409,5.91716 -0.50409,13.14922 v 13.14924 l 21.56864,27.1841 c 11.86274,14.95126 26.20292,32.70388 31.86704,39.45026 9.99847,11.90891 10.48108,12.81424 16.56984,31.08375 3.44929,10.34967 6.05912,19.01951 5.79963,19.26631 -0.2595,0.24678 -7.45963,-4.4409 -16.00028,-10.41708 l -15.52847,-10.8658 -8.29942,-15.061 c -4.56468,-8.28356 -8.47621,-14.88356 -8.69229,-14.66667 -0.35288,0.3542 9.98237,45.51333 10.50021,45.87993 0.11827,0.0837 12.11258,7.82446 26.65394,17.20156 21.07243,13.58872 29.09811,19.64706 39.54031,29.84774 l 13.10146,12.79844 6.12528,17.77742 c 3.36892,9.77758 5.61259,17.57758 4.98594,17.33334 -0.62664,-0.24426 -6.77616,-3.01944 -13.66559,-6.1671 -11.89039,-5.43248 -12.85849,-6.19442 -19.07165,-15.01013 -3.59999,-5.10793 -6.77916,-9.0534 -7.06484,-8.76772 -0.28568,0.28568 0.53037,5.61948 1.81345,11.85287 l 2.33287,11.33345 22.43504,10.74035 22.43504,10.74034 3.2801,7.41692 c 1.80407,4.07931 3.4716,7.41692 3.70563,7.41692 0.23403,0 6.67844,-2.43684 14.32091,-5.4152 z m 97.13558,-9.64361 8.31849,-15.05883 21.11568,-6.99249 21.11569,-6.99249 -1.78148,-6.75328 c -2.1428,-8.12296 -3.27624,-9.62092 -3.30382,-4.36632 -0.0307,5.84677 -1.09214,6.7052 -12.32587,9.96856 -9.28931,2.6985 -11.09136,2.83881 -17.63965,1.37336 -5.29642,-1.18528 -7.98178,-2.61162 -9.80754,-5.20927 -2.41728,-3.43928 -2.42446,-3.78589 -0.18658,-8.99675 1.62408,-3.78162 5.45601,-7.9169 12.67853,-13.68218 8.3654,-6.67756 12.43755,-8.89898 21.22839,-11.58035 5.98257,-1.8248 11.50436,-3.31781 12.27061,-3.31781 0.76627,0 5.46131,-5.05828 10.43343,-11.24062 7.94261,-9.87586 11.03745,-12.48968 25.49041,-21.52836 l 16.45023,-10.28773 2.16737,-10.13832 c 1.19204,-5.57607 2.6507,-12.03617 3.24143,-14.3558 0.91788,-3.60419 0.56115,-4.68028 -2.45315,-7.40001 -8.07327,-7.28435 -8.23512,-7.27815 -5.83611,0.22373 1.87763,5.87149 1.93795,7.87859 0.45286,15.06868 -0.94231,4.56223 -1.97072,8.71147 -2.28535,9.22055 -0.31463,0.50908 -7.84999,4.96101 -16.74525,9.89318 -15.2259,8.44235 -16.27786,8.82451 -17.95966,6.52451 -4.35741,-5.95912 -3.61924,-9.72812 7.96074,-40.64648 6.17981,-16.5 13.39429,-33.61065 16.03217,-38.02368 4.53876,-7.59308 5.94448,-8.72804 26.19382,-21.14852 11.76872,-7.21867 22.56788,-14.10801 23.99814,-15.30965 1.43026,-1.20166 5.83584,-8.11251 9.79019,-15.35747 l 7.18972,-13.17267 -4.62333,-11.494 c -2.54283,-6.3217 -4.91148,-11.791 -5.26366,-12.154 -0.35218,-0.36298 -0.22006,5.06532 0.29359,12.0629 l 0.93392,12.72286 -9.66228,4.26775 -9.66229,4.26773 0.76206,-3.81034 c 3.30464,-16.52315 3.4148,-16.04823 -7.26084,-31.30264 -5.39569,-7.7099 -9.94258,-13.88578 -10.1042,-13.72416 -0.16161,0.16162 2.28899,8.38712 5.44578,18.27888 l 5.73961,17.98502 -1.45841,11.26554 -1.45842,11.26553 -19.84272,16.25427 -19.84272,16.25426 -5.83364,-2.8342 c -5.32513,-2.58716 -5.77709,-3.18836 -5.18497,-6.89714 0.35677,-2.23462 1.26781,-9.76294 2.02453,-16.7296 2.27579,-20.95171 5.22648,-32.30448 11.2994,-43.47444 l 5.60304,-10.30568 -5.44479,-9.77436 c -2.99464,-5.37591 -5.627,-9.22878 -5.84969,-8.56192 -0.22269,0.66684 0.12747,5.18617 0.77823,10.04296 l 1.18312,8.83052 -5.1154,4.62146 c -2.81347,2.5418 -5.57518,4.62146 -6.13714,4.62146 -0.56194,0 -2.90282,-3.45 -5.20196,-7.66667 -3.84632,-7.05423 -4.13798,-8.46549 -3.65125,-17.66667 0.60123,-11.36583 0.20365,-10.56963 -5.82883,11.67287 l -4.06989,15.00619 8.22401,6.22925 c 4.5232,3.42609 8.43983,6.38913 8.70363,6.58455 0.26379,0.1954 -0.47484,8.69673 -1.6414,18.89185 -1.5796,13.80489 -1.90541,24.49769 -1.27637,41.88957 0.83906,23.19942 0.82025,23.41984 -2.86111,33.51351 -2.33581,6.40437 -4.25933,9.84731 -5.20324,9.31332 -0.82363,-0.46595 -5.15824,-3.42093 -9.63248,-6.56663 l -8.13497,-5.71945 -0.86603,-9.31809 c -0.50464,-5.42971 -0.29365,-10.82355 0.50561,-12.92576 2.00054,-5.2618 0.5388,-5.5509 -2.11533,-0.41835 -1.88831,3.65159 -2.12627,6.52608 -1.39795,16.88721 0.7673,10.9157 1.53471,13.79324 6.10003,22.87323 5.03333,10.01079 5.23131,10.90985 5.47053,24.84371 l 0.24822,14.45705 -7.6034,6.62384 -7.6034,6.62384 -3.07355,-3.85459 -3.07355,-3.85458 2.10934,9.82414 2.10933,9.82416 -12.89527,12.40238 -12.89526,12.40237 -3.25992,12.83799 c -1.79295,7.06089 -3.50601,13.08408 -3.80678,13.38485 -0.64012,0.64013 -6.3834,-32.08843 -6.36312,-36.26079 0.008,-1.5578 0.88716,-5.3078 1.95463,-8.33333 1.06746,-3.02553 1.74773,-5.50097 1.5117,-5.50097 -0.23604,0 -2.60942,2.79846 -5.2742,6.21881 l -4.84502,6.21881 v 19.34582 19.34582 l -9.3991,15.92516 c -5.1695,8.75884 -9.16482,16.15944 -8.87849,16.44578 0.86459,0.86457 25.50209,10.93745 27.04252,11.05616 0.78739,0.0607 5.17492,-6.66616 9.7501,-14.94851 z M 327.61916,491 c -0.8989,-1.67009 77.20468,-135.63771 79.32179,-136.05719 6.74157,-1.33574 4.31685,3.71135 -31.575,65.72386 l -36.27049,62.66666 61.81302,0.34654 61.81303,0.34653 -2.06166,3.9868 L 458.5982,492 h -65.2204 c -35.87123,0 -65.46262,-0.45 -65.75864,-1 z m 272.42777,-2.91235 c -0.75914,-1.41845 -1.38024,-2.91845 -1.38024,-3.33333 0,-0.41488 27.84406,-0.75432 61.87572,-0.75432 h 61.87571 l -34.54238,-59.96065 c -18.99832,-32.97836 -34.54239,-60.8049 -34.54239,-61.83674 0,-1.03185 0.85986,-2.58972 1.9108,-3.46192 1.53486,-1.27381 2.2946,-0.97801 3.86151,1.50342 3.92985,6.22346 73.05204,126.61537 73.7709,128.48866 0.64222,1.6736 -8.15388,1.9339 -65.35365,1.9339 -63.9823,0 -66.13986,-0.0824 -67.47598,-2.57902 z M 432.69041,313.44136 c -0.59328,-2.70116 0.0352,-5.63656 2.05411,-9.59393 l 2.90893,-5.70198 1.63218,3.92727 c 1.39906,3.36637 1.24304,4.73663 -1.0924,9.59395 -3.21202,6.68044 -4.34508,7.04585 -5.50282,1.77469 z m 145.97627,-78.95707 c -26.03333,-45.2003 -47.69765,-81.96785 -48.14293,-81.70565 -0.44528,0.2622 -18.14312,30.49499 -39.32855,67.18397 -21.18543,36.68899 -39.07824,66.52082 -39.76181,66.29296 -4.91746,-1.63916 -3.69358,-4.93509 11.79446,-31.76273 8.62379,-14.93772 27.17545,-47.10773 41.2259,-71.48889 14.05044,-24.38116 25.85609,-44.33116 26.23476,-44.33334 0.88463,-0.005 1.03859,0.2578 52.53495,89.69844 42.22121,73.33127 43.57373,75.89966 43.18149,82 l -0.40493,6.29762 z"
       id="path24"
       inkscape:connector-curvature="0" />
  </g>
</svg>
