<?xml version="1.0" encoding="UTF-8" standalone="no"?>
<!-- Created with Inkscape (http://www.inkscape.org/) -->

<svg
   xmlns:dc="http://purl.org/dc/elements/1.1/"
   xmlns:cc="http://creativecommons.org/ns#"
   xmlns:rdf="http://www.w3.org/1999/02/22-rdf-syntax-ns#"
   xmlns:svg="http://www.w3.org/2000/svg"
   xmlns="http://www.w3.org/2000/svg"
   xmlns:sodipodi="http://sodipodi.sourceforge.net/DTD/sodipodi-0.dtd"
   xmlns:inkscape="http://www.inkscape.org/namespaces/inkscape"
   version="1.1"
   id="svg10"
   width="547.63544"
   height="816.62006"
   viewBox="0 0 438.10835 653.29605"
   sodipodi:docname="deerOneL2.svg"
   inkscape:version="0.92.4 (5da689c313, 2019-01-14)">
  <metadata
     id="metadata16">
    <rdf:RDF>
      <cc:Work
         rdf:about="">
        <dc:format>image/svg+xml</dc:format>
        <dc:type
           rdf:resource="http://purl.org/dc/dcmitype/StillImage" />
        <dc:title></dc:title>
      </cc:Work>
    </rdf:RDF>
  </metadata>
  <defs
     id="defs14" />
  <sodipodi:namedview
     pagecolor="#ffffff"
     bordercolor="#666666"
     borderopacity="1"
     objecttolerance="10"
     gridtolerance="10"
     guidetolerance="10"
     inkscape:pageopacity="0"
     inkscape:pageshadow="2"
     inkscape:window-width="1920"
     inkscape:window-height="1017"
     id="namedview12"
     showgrid="false"
     inkscape:zoom="0.75541615"
     inkscape:cx="219.29355"
     inkscape:cy="485.14714"
     inkscape:window-x="-8"
     inkscape:window-y="-8"
     inkscape:window-maximized="1"
     inkscape:current-layer="g20"
     fit-margin-top="0"
     fit-margin-left="0"
     fit-margin-right="0"
     fit-margin-bottom="0"
     scale-x="0.8"
     inkscape:pagecheckerboard="true" />
  <g
     id="g20"
     transform="translate(-575.92788,-237.19673)">
    <path
       d="m 293.28729,804.51788 c -3.99486,-6.66776 -5.89455,-16.06527 -4.06105,-20.08937 1.17866,-2.5869 1.04506,-7.17922 -0.58925,-20.25461 -4.91165,-39.29604 -3.94525,-77.068 2.42351,-94.7237 1.89247,-5.24635 4.242,-13.36078 5.22118,-18.03209 1.53135,-7.30548 1.51275,-8.76085 -0.133,-10.40662 -2.087,-2.08699 -1.38556,-6.22139 1.64252,-9.68125 1.00601,-1.14944 1.87096,-4.42578 1.92214,-7.28075 0.0511,-2.85497 0.546,-6.34814 1.09964,-7.7626 0.60456,-1.54454 0.10749,-4.98136 -1.24458,-8.60452 -3.13347,-8.39716 -4.37922,-15.9611 -2.62874,-15.9611 0.78097,0 0.19301,-2.38682 -1.31718,-5.34703 -3.12588,-6.12723 -9.702,-10.7577 -14.53502,-10.23458 -2.73739,0.2963 -3.29501,1.04467 -3.22597,4.32953 0.0459,2.18423 -0.65073,4.71049 -1.54806,5.61394 -0.89734,0.90344 -1.94134,5.37117 -2.32002,9.9283 -3.81281,45.88515 -3.74804,42.26503 -0.81201,45.3903 2.98973,3.18241 2.70441,5.57197 -2.93193,24.55463 -2.09725,7.0634 -2.61421,13.06454 -2.73685,31.77057 -0.0831,12.68426 0.30803,25.14721 0.86928,27.69548 0.56126,2.54826 1.17844,14.06806 1.37153,25.59954 0.2786,16.63866 -0.0183,21.10808 -1.43822,21.65296 -0.98409,0.37763 -1.78926,2.05635 -1.78926,3.73048 0,2.40306 0.56344,2.89654 2.67635,2.344 2.41665,-0.63197 2.5451,-0.3547 1.32377,2.85765 -0.74392,1.95665 -1.35258,5.06501 -1.35258,6.90749 0,1.84247 -0.85116,4.93111 -1.89146,6.86364 -1.0403,1.93252 -2.67496,5.44969 -3.63258,7.81594 -1.75642,4.34008 -5.06614,5.91367 -5.06614,2.40867 0,-1.04148 -1.31827,-2.08395 -2.92948,-2.3166 -3.49711,-0.50498 -5.38243,-7.02353 -4.22412,-14.605 0.41307,-2.70357 0.31538,-5.62046 -0.21708,-6.48201 -0.53247,-0.86154 -1.09005,-8.47855 -1.23908,-16.9267 -0.89544,-50.75919 -3.33104,-75.67515 -7.66893,-78.45232 -1.85079,-1.18491 -1.40828,-24.21994 0.53503,-27.85106 2.29259,-4.28375 0.63299,-17.68518 -4.80326,-38.78669 -3.3275,-12.91618 -5.13563,-23.54769 -5.96611,-35.08 -0.6554,-9.10094 -1.81217,-18.63211 -2.57061,-21.18038 -0.75845,-2.54826 -2.22676,-9.477 -3.26295,-15.39721 -1.21914,-6.96548 -3.71902,-14.43984 -7.08404,-21.18037 -10.53464,-21.1022 -12.50263,-27.63038 -13.22707,-43.87654 -0.48271,-10.82558 -0.0162,-18.82804 1.69777,-29.12302 l 2.3634,-14.19569 -3.43043,-6.61887 c -2.77064,-5.34586 -3.71116,-9.80139 -4.89011,-23.16604 -0.80282,-9.10095 -2.02265,-18.63212 -2.71072,-21.18038 -1.77636,-6.57874 -1.63999,-13.62524 0.24119,-12.46261 1.07441,0.66401 1.25734,-0.39948 0.63724,-3.70485 -0.47837,-2.54992 -1.40637,-13.20841 -2.06224,-23.68555 -1.0161,-16.23198 -1.54586,-19.24553 -3.58192,-20.3759 -8.17148,-4.5366 -19.00422,-20.65741 -19.00422,-28.28122 0,-4.28283 4.51589,-15.46839 7.72218,-19.1273 1.64308,-1.87503 1.73652,-2.62258 0.42889,-3.43074 -0.91958,-0.56834 -1.49159,-1.81748 -1.27115,-2.77589 0.41662,-1.81125 -2.18242,-3.42141 -12.04803,-7.464 -3.41057,-1.39752 -7.25611,-4.34803 -9.26642,-7.10966 -1.89003,-2.59641 -4.17359,-5.59196 -5.07459,-6.65679 -5.24036,-6.19329 -11.22696,-14.52013 -13.69094,-19.04295 -3.32486,-6.10298 -2.8571,-15.13841 0.89617,-17.31123 1.25766,-0.72807 3.3814,-2.36624 4.71942,-3.64038 2.58348,-2.46011 4.40173,-3.10774 3.18136,-1.13312 -0.40228,0.6509 1.49858,2.07856 4.22415,3.17257 2.72556,1.09401 7.73028,4.43583 11.1216,7.42628 8.13772,7.17578 12.07255,6.1651 4.87448,-1.25203 -2.79433,-2.87936 -5.35265,-5.23521 -5.68517,-5.23521 -0.33252,0 -2.67966,-1.40819 -5.21588,-3.12932 -5.33505,-3.62046 -14.15027,-4.95106 -36.54325,-5.51594 C 97.331444,207.78647 76.685379,201.88837 51.297513,187.80479 32.385443,177.31358 24.302027,170.95875 16.328087,160.31336 2.9855128,142.50074 -3.8950988,122.95507 -6.3972912,95.757638 -7.9335499,79.059365 -7.9507986,79.280042 -3.045759,52.878778 -0.99861753,41.860086 4.3452878,30.012497 8.4143933,27.471299 c 1.4427809,-0.901032 2.6232387,-2.984192 2.6232387,-4.629244 0,-2.024737 0.78903,-2.991005 2.442378,-2.991005 1.343309,0 3.520579,-1.191396 4.838377,-2.647547 1.317798,-1.456151 3.483718,-2.647547 4.813157,-2.647547 4.110928,0 4.407227,5.783698 0.762722,14.88825 -9.335544,23.321677 -12.270431,43.749044 -8.209098,57.136859 1.084233,3.574073 1.980583,8.637507 1.991889,11.252076 0.01125,2.614569 1.393502,9.747859 3.071547,15.851749 2.991315,10.88092 3.135801,11.10466 7.387005,11.43909 4.853827,0.38183 4.807792,1.03843 0.883984,-12.60877 -2.715562,-9.44487 -3.795574,-32.380455 -1.789967,-38.012538 3.101876,-8.71059 8.155554,-6.614247 9.518582,3.948456 1.082171,8.386233 3.359177,17.349545 4.195066,16.513657 0.334736,-0.334736 1.523468,-5.905075 2.641624,-12.37853 3.661367,-21.197117 7.842303,-32.597795 14.832789,-40.446405 9.092272,-10.208405 11.82759,-12.386254 22.278125,-17.737753 7.915233,-4.053224 9.878327,-4.585281 12.244906,-3.318726 1.550135,0.829608 2.818428,2.335337 2.818428,3.346066 0,1.954916 -6.802845,11.413339 -14.040097,19.520833 -2.407935,2.697476 -5.631961,7.362344 -7.164503,10.366371 -4.098342,8.033417 -8.088103,24.839222 -7.120896,29.99488 0.601547,3.206522 0.339377,4.381176 -0.981144,4.39603 -1.431952,0.01611 -1.406174,0.270683 0.125507,1.239578 1.469057,0.929277 2.676052,-0.09845 5.074272,-4.320584 5.797361,-10.206434 11.582131,-16.248145 15.39724,-16.081136 6.079638,0.266139 6.532804,2.170621 2.700582,11.349515 -4.375527,10.480214 -5.626342,27.888156 -3.376655,46.993836 1.335735,11.34384 2.221938,14.2344 6.651383,21.69502 2.810677,4.73409 6.310155,9.69327 7.776615,11.0204 2.64128,2.39033 2.65527,2.36547 1.49112,-2.65046 -2.24114,-9.6563 -1.54432,-16.12986 2.13197,-19.80614 3.0789,-3.0789 3.62258,-3.20488 6.28793,-1.45701 1.60469,1.05232 3.72722,4.53206 4.71674,7.73274 4.68702,15.16056 11.16106,23.4122 25.80827,32.89453 4.47397,2.89637 10.03493,7.05518 12.35768,9.24179 2.32276,2.18662 7.08835,5.38331 10.59019,7.10376 3.50186,1.72046 9.40827,4.94911 13.12537,7.1748 3.7171,2.22569 8.78053,4.46929 11.25208,4.98577 5.79102,1.21017 10.45069,4.18265 10.45069,6.66667 0,2.60245 2.33752,2.51408 2.88143,-0.10895 0.33677,-1.62412 1.63931,-1.13119 6.11089,2.31264 3.12558,2.40719 5.99051,5.60239 6.3665,7.10044 0.85274,3.39758 8.75123,7.79369 12.32419,6.85933 1.46654,-0.38351 3.35698,0.13476 4.20098,1.15171 0.96857,1.16705 4.18338,1.84901 8.7164,1.84901 5.96026,0 7.70358,-0.56292 10.24896,-3.30944 1.6869,-1.82018 3.76209,-3.30943 4.61155,-3.30943 0.84945,0 1.90049,-0.92778 2.33563,-2.06174 0.43514,-1.13396 1.52207,-1.78125 2.41541,-1.43845 0.89333,0.3428 7.15542,-4.93099 13.91575,-11.71955 l 12.2915,-12.34283 -1.58071,-6.27756 c -3.16824,-12.58223 0.77514,-27.87454 12.88856,-49.98154 7.03694,-12.84243 10.06711,-15.75718 15.03146,-14.45898 4.30986,1.12706 4.01206,5.42631 -1.37622,19.86814 -2.91589,7.81521 -5.93422,16.59228 -6.70739,19.50458 -1.92558,7.25302 -1.84475,19.19472 0.12999,19.19472 0.85276,0 2.61269,0.96129 3.91096,2.1362 1.90294,1.72214 3.14135,1.86399 6.38909,0.73182 8.40989,-2.93171 29.17468,-17.77147 38.28055,-27.35759 5.11329,-5.38297 11.09308,-10.71604 13.28841,-11.8513 3.74219,-1.93517 4.07737,-1.90365 5.3662,0.50454 0.86061,1.60807 0.93135,3.7347 0.18918,5.68678 -1.64521,4.32721 -21.13696,26.16686 -26.68749,29.90212 -2.50792,1.68772 -5.45338,4.96555 -6.54549,7.28404 -1.48964,3.16244 -4.41575,5.42205 -11.71385,9.04569 -10.69967,5.31258 -13.99456,7.74563 -10.48936,7.74563 1.18482,0 6.15423,-2.08495 11.04312,-4.63321 4.8889,-2.54827 9.62924,-4.63321 10.53411,-4.63321 0.90488,0 2.62104,-1.48924 3.81366,-3.30943 1.19264,-1.82019 2.91174,-3.30944 3.82023,-3.30944 2.60173,0 23.61419,-22.0792 32.09775,-33.72729 8.0614,-11.06845 12.52146,-22.16287 12.52146,-31.14727 0,-6.71707 1.0988,-9.25674 4.00498,-9.25674 2.94691,0 7.28757,6.92035 8.4523,13.47554 1.55243,8.7372 -4.91439,26.83562 -13.03864,36.49075 -1.86449,2.21581 -3.38996,4.66761 -3.38996,5.44847 0,0.78084 -4.31882,5.63998 -9.59736,10.79807 -7.22078,7.05599 -8.32236,8.54198 -4.44848,6.00088 2.83188,-1.85761 6.2894,-3.37748 7.68336,-3.37748 3.19702,0 27.96519,-23.88777 30.66307,-29.57314 1.10212,-2.32253 3.59055,-5.70311 5.52984,-7.51237 4.03855,-3.7678 9.11475,-13.21864 12.70525,-23.65461 2.93515,-8.53114 3.5233,-36.112348 0.89317,-41.884846 -2.39425,-5.25482 1.04752,-6.97728 8.19832,-4.102901 4.55514,1.831013 5.96081,-1.28845 5.85926,-13.002941 -0.0764,-8.811992 -1.00371,-14.096715 -4.24729,-24.204851 -5.59784,-17.44491 -11.13703,-37.1665113 -11.86243,-42.2347661 -0.6794,-4.7468662 1.51268,-9.7480712 4.27268,-9.7480712 2.18386,0 7.1972,6.3523884 10.96966,13.8996234 4.99935,10.0017529 13.61171,42.0121519 15.5635,57.8463799 0.57919,4.698776 1.23474,6.039568 2.68147,5.484409 1.36185,-0.522597 1.91485,0.239268 1.91485,2.638139 0,4.567626 -2.36578,5.73012 -3.98779,1.959518 -1.00194,-2.329142 -1.10309,-1.635521 -0.42194,2.893445 0.49275,3.276339 0.92062,6.984703 0.95083,8.240808 0.1153,4.797008 3.2144,3.390614 4.50794,-2.045761 2.71658,-11.417067 8.13304,-43.018467 9.29569,-54.234236 0.96411,-9.300328 1.81986,-12.288664 4.26414,-14.890476 2.8651,-3.049761 3.21052,-3.117008 5.47663,-1.066211 6.36252,5.757999 -0.18557,66.766926 -9.49777,88.491428 -1.45707,3.39919 -4.21985,10.74545 -6.13952,16.32504 -3.4694,10.08393 -17.29571,33.42789 -29.09844,49.12898 -8.22859,10.94646 -25.326,26.60577 -39.51418,36.1906 -14.56907,9.84212 -39.76216,22.00485 -55.38804,26.74025 -6.41568,1.94427 -11.85565,4.23237 -12.08881,5.08467 -3.27201,11.96046 -4.42459,13.92473 -13.60385,23.18401 -5.30002,5.34623 -9.63641,10.13706 -9.63641,10.64629 0,1.11551 -20.32924,10.28016 -25.51756,11.50362 -2.02142,0.47667 -4.3114,2.13847 -5.08885,3.69289 -0.77746,1.55442 -2.99561,4.16085 -4.92923,5.79206 l -3.51568,2.96585 v 22.59328 c 0,21.65243 0.1202,22.68658 2.88768,24.83341 1.58822,1.23206 3.28322,4.42353 3.76666,7.09216 1.15963,6.4011 4.94545,9.72445 16.3774,14.37671 12.79372,5.20644 20.58091,10.81829 24.65241,17.76578 4.04526,6.90271 8.3375,9.99943 13.85982,9.99943 2.22914,0 8.80061,1.23065 14.60326,2.73476 10.2916,2.66772 10.96422,2.68159 27.43322,0.56614 20.09466,-2.58119 32.30711,-5.03984 39.01364,-7.85434 14.61336,-6.13271 52.83913,2.39691 71.14934,15.87611 9.99125,7.35514 22.76382,23.52155 28.69014,36.31348 2.53483,5.4714 6.15665,15.60714 8.04848,22.52385 3.21916,11.76945 3.44751,14.54047 3.5611,43.2138 0.10484,26.45748 -0.17107,30.97311 -2.02205,33.09434 -1.17889,1.35102 -3.75045,7.81768 -5.71457,14.37036 -1.96413,6.55268 -4.44532,14.21105 -5.51376,17.01861 -1.50739,3.961 -1.59155,5.52764 -0.37563,6.99274 1.18011,1.42194 1.20279,3.10307 0.0919,6.80932 -0.81133,2.70666 -1.87414,6.41046 -2.36179,8.23065 -0.48766,1.82019 -1.40464,3.64403 -2.03772,4.05299 -0.63862,0.41251 -0.47172,4.12638 0.37488,8.34188 1.14877,5.72018 1.15018,7.97409 0.005,9.11856 -0.83574,0.83612 -1.51985,4.67743 -1.51985,8.53623 0,3.8588 -0.5957,7.016 -1.32377,7.016 -2.26276,0 -1.45123,2.30544 1.04093,2.95716 1.31924,0.34498 3.0347,2.8014 3.88014,5.55611 1.32173,4.30656 1.25192,4.83663 -0.54607,4.14668 -2.49604,-0.95783 -0.46735,2.42833 8.41506,14.04592 3.15852,4.13114 5.74277,8.33609 5.74277,9.34434 0,1.00827 0.8746,2.98953 1.94356,4.40282 1.06895,1.41329 1.9625,3.50064 1.98566,4.63856 0.0232,1.13791 1.85364,3.8045 4.06775,5.92575 7.64349,7.32293 12.06408,15.71217 11.60919,22.03154 -0.36138,5.02021 -0.89465,5.87672 -4.38276,7.03943 -2.18423,0.72808 -3.97133,2.21732 -3.97133,3.30943 0,1.26306 -1.35662,2.03472 -3.72789,2.12045 -6.55086,0.23686 -7.89268,2.9706 -7.64438,15.57421 0.12245,6.21516 -0.35306,12.37158 -1.05668,13.68094 -0.70361,1.30934 -1.97393,11.3161 -2.82293,22.23724 -0.84899,10.92113 -1.76435,20.59457 -2.03411,21.49651 -0.37007,1.23733 -1.39518,1.29594 -4.17567,0.2388 -6.85185,-2.60506 -8.32324,-4.96261 -8.32324,-13.33596 0,-4.4336 -0.58308,-7.73747 -1.36555,-7.73747 -0.90789,0 -1.06677,-4.62157 -0.47405,-13.78939 0.72531,-11.21878 0.48633,-14.80204 -1.28199,-19.2215 -1.19544,-2.98766 -2.17351,-7.68372 -2.17351,-10.43568 0,-2.75195 -0.69572,-5.69926 -1.54603,-6.54958 -1.17888,-1.17887 -1.17888,-2.77154 0,-6.70626 2.11919,-7.07325 1.94009,-17.8946 -0.3884,-23.46746 -3.29851,-7.89447 -19.29367,-32.70609 -25.12238,-38.96975 -3.04882,-3.27634 -7.11096,-8.10812 -9.02699,-10.73728 -1.91602,-2.62916 -5.87257,-7.26664 -8.79232,-10.30554 -2.91976,-3.03888 -4.99689,-6.3377 -4.61583,-7.33071 0.38105,-0.993 0.0565,-2.19872 -0.7212,-2.67939 -0.77771,-0.48064 -1.41402,-2.14074 -1.41402,-3.68907 0,-1.54834 -2.26265,-5.53416 -5.02809,-8.85735 -2.76545,-3.3232 -6.3802,-7.9782 -8.03279,-10.34444 -1.65257,-2.36625 -3.59475,-4.30227 -4.31594,-4.30227 -0.72119,0 -3.59496,1.83524 -6.38615,4.0783 -2.7912,2.24307 -7.37293,4.86635 -10.18163,5.82953 -5.61509,1.92557 -7.79654,5.97746 -3.21812,5.97746 3.25458,0 3.60708,2.03331 0.64034,3.69359 -1.15735,0.6477 -2.01245,1.42192 -1.90022,1.7205 0.11226,0.29859 -0.18029,1.5445 -0.65005,2.76867 -0.49414,1.28769 0.25459,3.79837 1.77648,5.95698 1.44682,2.05217 3.01111,5.96507 3.47619,8.69535 0.46508,2.73029 1.35891,4.96415 1.98628,4.96415 0.62738,0 3.37465,6.85053 6.10506,15.2234 3.90344,11.97004 5.47575,15.2234 7.35728,15.2234 3.16046,0 5.59109,4.58881 4.03183,7.6117 -0.65721,1.27413 -1.30747,6.70875 -1.44503,12.07693 -0.21363,8.33759 0.14673,10.13002 2.47214,12.29648 3.15299,2.93745 3.4661,5.46279 0.93751,7.56133 -1.93912,1.60934 -3.58333,0.1942 -7.98395,-6.87163 -2.8113,-4.51392 -4.18091,-3.68766 -9.21304,5.558 -2.18956,4.02294 -3.19781,7.40493 -2.64053,8.85717 0.68094,1.77452 0.39243,2.15394 -1.17924,1.55082 -1.53549,-0.58922 -3.21517,1.32993 -6.40977,7.32361 -2.38095,4.46713 -4.72567,9.93538 -5.21048,12.15166 -0.4848,2.21627 -1.49723,3.90688 -2.24982,3.75691 -0.75258,-0.14998 -2.40046,2.01617 -3.66197,4.81368 -1.26149,2.7975 -4.1201,6.43674 -6.35247,8.08719 l -4.05883,3.00083 -2.48475,-3.06852 c -1.47214,-1.81802 -2.11157,-3.92371 -1.56903,-5.16697 1.0468,-2.39886 5.50287,-18.35494 7.05563,-25.26447 0.57267,-2.54827 1.66685,-6.12245 2.43151,-7.94264 0.76465,-1.82019 2.41616,-7.96634 3.67002,-13.6581 3.03966,-13.79831 2.09317,-23.71017 -3.24316,-33.9636 -2.25226,-4.32759 -4.10947,-9.23307 -4.12713,-10.90107 -0.0176,-1.66799 -2.10764,-5.71335 -4.64442,-8.98969 -7.05055,-9.10607 -13.00984,-18.49461 -16.43731,-25.89612 -2.22124,-4.79671 -4.647,-7.61856 -8.53471,-9.92831 -7.23012,-4.29551 -7.41712,-4.35881 -7.41712,-2.51098 0,1.94767 -8.12977,20.79721 -12.62153,29.26409 -1.79506,3.38365 -3.26375,7.32148 -3.26375,8.75074 0,1.42927 -1.48925,4.7932 -3.30943,7.47539 -1.82019,2.68221 -3.30944,6.73939 -3.30944,9.01597 0,2.27659 -0.92038,5.15625 -2.04528,6.39926 -1.85396,2.04859 -7.0092,14.6226 -9.93888,24.24164 -0.63471,2.08397 -1.77449,8.04095 -2.53284,13.23774 -0.75835,5.19678 -2.17829,13.91643 -3.15542,19.377 -1.48297,8.28733 -1.48446,10.91289 -0.009,15.88528 2.21644,7.46986 2.22102,7.32871 -0.32093,9.87066 -1.68378,1.68378 -1.78894,2.51253 -0.51378,4.04901 0.88472,1.06602 1.18082,2.97776 0.66064,4.26537 -0.51846,1.2834 -1.21652,8.54649 -1.55122,16.1402 -0.3347,7.59372 -0.67056,14.1464 -0.74634,14.56151 -0.0759,0.41513 0.32838,2.41694 0.89814,4.44848 0.74911,2.67103 0.44272,4.34922 -1.10662,6.06123 -1.17841,1.30211 -2.14256,4.5335 -2.14256,7.18083 0,3.40398 -0.74972,5.21459 -2.56052,6.18369 -3.9313,2.10397 -4.96,1.71449 -7.7438,-2.93192 z M 510.86661,486.24636 c 1.99325,-13.29202 -6.08432,-36.77253 -19.6775,-57.20003 -2.0283,-3.04807 -4.26545,-5.18495 -4.97146,-4.74861 -0.70601,0.43635 -3.96101,-1.40055 -7.23334,-4.08196 -6.94786,-5.69326 -7.4917,-4.45471 -1.97835,4.50561 2.18422,3.54982 3.97132,7.7236 3.97132,9.27507 0,1.55148 1.24093,3.57055 2.75763,4.48682 3.55807,2.14947 8.73633,11.95486 6.67607,12.64161 -1.84349,0.6145 -1.99232,5.57149 -0.16729,5.57149 0.72808,0 1.32378,1.7684 1.32378,3.92978 0,2.95817 0.49345,3.74041 1.99584,3.1639 1.38812,-0.53268 1.89998,-0.0161 1.68106,1.69625 -0.46781,3.65899 4.62683,16.36177 6.56212,16.36177 0.92121,0 1.67494,1.52938 1.67494,3.39864 0,2.74724 0.48641,3.24425 2.53783,2.59315 2.05602,-0.65255 2.4037,-0.2925 1.83127,1.89647 -0.3886,1.48605 -0.0778,2.70192 0.6905,2.70192 0.76837,0 1.81489,-2.78634 2.32558,-6.19188 z M 477.8319,431.92935 c -0.39147,-0.39147 -1.64451,-0.35384 -2.78453,0.0837 -1.83574,0.70443 -1.80442,1.06716 0.27385,3.1718 2.25706,2.28569 2.36334,2.28249 2.78453,-0.0837 0.24085,-1.35302 0.11755,-2.78032 -0.27385,-3.17179 z m -7.44588,-6.34367 c -1.78602,-3.33721 -3.97025,-4.42853 -3.97025,-1.98367 0,0.72808 0.55556,1.32378 1.23456,1.32378 0.67902,0 1.62696,1.23628 2.10654,2.74731 0.47957,1.51102 1.21559,2.40366 1.6356,1.98366 0.42001,-0.42 -0.033,-2.25199 -1.00645,-4.07108 z m -8.30009,-8.07854 c -0.43988,-0.43988 -1.58164,-0.4869 -2.53724,-0.10445 -1.05601,0.42258 -0.74234,0.73626 0.79979,0.79977 1.39547,0.0575 2.17733,-0.25539 1.73745,-0.69527 z M 286.38255,243.5688 c 1.09212,-0.70579 1.38996,-1.28323 0.66189,-1.28323 -0.72808,0 -2.21732,0.57744 -3.30944,1.28323 -1.09211,0.70578 -1.38996,1.28322 -0.66188,1.28322 0.72807,0 2.21732,-0.57744 3.30943,-1.28322 z m 6.61887,-2.64755 c 1.09211,-0.70578 1.38996,-1.28323 0.66189,-1.28323 -0.72808,0 -2.21732,0.57745 -3.30944,1.28323 -1.09211,0.70578 -1.38996,1.28323 -0.66188,1.28323 0.72807,0 2.21732,-0.57745 3.30943,-1.28323 z m -101.49136,-8.03198 c 1.16819,-0.0675 -9.74869,-3.50794 -12.13254,-3.82356 -0.2427,-0.0322 -0.19853,0.66977 0.0981,1.55979 0.61791,1.85374 6.10408,3.66513 8.72497,2.88074 0.96963,-0.2902 2.45888,-0.56783 3.30943,-0.61697 z M 323.0897,218.94109 c -0.43989,-0.43988 -1.58165,-0.4869 -2.53724,-0.10445 -1.05601,0.42258 -0.74235,0.73626 0.79978,0.79977 1.39547,0.0574 2.17733,-0.25539 1.73746,-0.69527 z m 8.25906,-7.4738 c 0.0232,-0.54606 -0.70253,-0.99241 -1.61262,-0.99189 -0.9101,5e-4 -1.74251,1.52001 -1.8498,3.37665 -0.18058,3.12456 -0.0606,3.19836 1.61261,0.99189 0.99424,-1.3111 1.82664,-2.8306 1.84981,-3.37665 z m 97.72628,-45.22852 c 8.80696,-8.24905 17.96263,-22.42333 19.98252,-30.93579 0.64169,-2.70426 1.63542,-6.10823 2.20831,-7.56438 0.57289,-1.45615 -2.4356,2.41589 -6.68552,8.60453 -9.45097,13.76228 -16.70421,22.79521 -17.59155,21.90787 -0.36494,-0.36492 0.09,-1.57145 1.01098,-2.68115 0.92097,-1.10972 1.26316,-2.01766 0.76039,-2.01766 -0.50277,0 0.23531,-1.63817 1.64018,-3.64038 1.40487,-2.00221 2.96961,-5.91655 3.4772,-8.69853 0.50758,-2.78199 1.24954,-5.9094 1.64878,-6.94981 0.45964,-1.1978 -0.17577,-1.94799 -1.73233,-2.04522 -2.21691,-0.13848 -2.2309,-0.21298 -0.14253,-0.75877 2.26843,-0.59287 3.44356,-3.73552 3.37133,-9.01597 -0.0199,-1.45615 0.25614,-5.32819 0.61344,-8.60453 0.35731,-3.27634 0.38566,-4.60656 0.063,-2.95605 -0.32267,1.65052 -1.14182,2.65783 -1.82034,2.23848 -0.67853,-0.41935 -1.3016,-0.28052 -1.38462,0.3085 -0.083,0.58903 -0.34009,2.64297 -0.57127,4.56432 -0.23119,1.92135 -1.10276,6.02768 -1.93683,9.12518 -1.10959,4.12068 -1.12187,5.87571 -0.0458,6.54078 0.80889,0.49992 1.09026,1.90038 0.62527,3.11212 -0.46499,1.21173 -1.47994,1.81102 -2.25545,1.33172 -0.88424,-0.54648 -1.09481,-0.05 -0.56472,1.33138 0.46491,1.21155 0.33288,2.20282 -0.29343,2.20282 -1.041,0 -2.9836,5.44607 -2.66016,7.45774 0.0752,0.46793 -0.43482,1.21522 -1.13347,1.66067 -0.69863,0.44544 -2.5053,2.85205 -4.01483,5.34801 -2.56056,4.23385 -2.59392,4.65005 -0.49753,6.20731 1.88229,1.39822 1.97845,2.10913 0.59234,4.37938 -3.99442,6.54235 0.14098,6.28724 7.33663,-0.45257 z M 45.455747,125.75294 c 0,-0.72807 -0.262692,-1.32377 -0.583762,-1.32377 -0.321069,0 -0.951923,0.5957 -1.401898,1.32377 -0.449976,0.72808 -0.187283,1.32378 0.583761,1.32378 0.771044,0 1.401899,-0.5957 1.401899,-1.32378 z m -6.561892,-11.55602 c -2.110105,-5.18513 -4.245184,-12.15245 -4.74462,-15.482916 -0.499435,-3.330471 -1.503762,-6.055403 -2.231838,-6.055403 -2.384493,0 0.371277,12.055759 5.091847,22.275459 2.504431,5.42192 4.816234,9.59532 5.13734,9.27421 0.321105,-0.32111 -1.142623,-4.82621 -3.252729,-10.01135 z M 56.295668,86.982943 C 55.909446,72.049832 56.146016,70.262986 60.055375,58.585515 62.3499,51.731641 63.915323,45.812011 63.534094,45.430781 61.049429,42.946117 54.276661,55.669403 51.260489,68.487908 c -3.58182,15.222472 -0.775671,40.223332 4.014309,35.764752 0.921592,-0.85783 1.28593,-7.021235 1.02087,-17.269717 z M 453.33309,85.146934 c 0.19172,-4.969527 0.21715,-12.907541 0.0565,-17.640032 -0.48505,-14.289559 -2.73032,-6.330084 -4.1725,14.791418 -1.63709,23.97651 -1.63314,24.02905 1.31013,17.410124 1.4189,-3.19089 2.60458,-9.344125 2.80586,-14.56151 z M 5.2458709,87.032563 C 3.7808003,70.717816 8.0594512,45.085811 13.014423,40.493697 c 1.646108,-1.525559 4.213115,-4.946198 5.704464,-7.601419 l 2.711542,-4.827675 -2.879794,-0.517527 c -4.087139,-0.734497 -7.511614,0.175397 -7.521159,1.998398 -0.0045,0.856709 -0.883846,3.236571 -1.9541345,5.288581 C 3.6207031,45.29196 -3.2567661,77.076985 0.42777029,74.799816 1.8337545,73.93087 3.4459385,82.848573 2.4500959,85.986194 2.01748,87.349247 2.283451,88.847608 3.0411427,89.315888 c 0.7576913,0.468279 1.3776212,2.305505 1.3776212,4.082725 0,1.777221 0.3800143,3.231309 0.8444775,3.231309 0.4644619,0 0.456645,-4.318811 -0.017368,-9.597359 z"
       id="path38"
       inkscape:connector-curvature="0"
       style="display:inline;stroke-width:1.32377362"
       transform="matrix(0.8,0,0,0.8,581.77354,243.55529)" />
  </g>
</svg>
